<svg width="24" height="24" viewBox="0 0 24 24" fill="none" xmlns="http://www.w3.org/2000/svg">
<path d="M19.9485 13.6967H18.2897V11.0623H19.157C19.6327 11.0623 20.0184 10.6766 20.0184 10.2008C20.0184 9.72511 19.6327 9.33942 19.157 9.33942H18.6044V9.23053C18.6044 5.8808 16.0975 3.1057 12.8614 2.68228V0.861422C12.8614 0.385688 12.4757 0 12 0C11.5243 0 11.1386 0.385688 11.1386 0.861422V2.68219C7.90242 3.10561 5.39559 5.88066 5.39559 9.23044V9.33933H4.84303C4.3673 9.33933 3.98161 9.72502 3.98161 10.2008C3.98161 10.6765 4.3673 11.0622 4.84303 11.0622H5.71031V13.6967H4.05155C3.57581 13.6967 3.19012 14.0824 3.19012 14.5581V23.1385C3.19012 23.6143 3.57581 24 4.05155 24H9.80325V20.2204C9.80325 19.0091 10.7887 18.0237 12 18.0237C13.2113 18.0237 14.1968 19.0091 14.1968 20.2204V24H19.9485C20.4242 24 20.8099 23.6143 20.8099 23.1386V14.5582C20.8099 14.0824 20.4243 13.6967 19.9485 13.6967ZM8.42442 13.6967H7.43316V11.0623H8.42442V13.6967ZM11.1386 13.6967H10.1473V11.0623H11.1386V13.6967ZM13.8527 13.6967H12.8614V11.0623H13.8527V13.6967ZM16.5668 13.6967H15.5756V11.0623H16.5668V13.6967Z" fill="#FF6596"/>
</svg>
