<svg width="24" height="24" viewBox="0 0 24 24" fill="none" xmlns="http://www.w3.org/2000/svg">
<g clip-path="url(#clip0)">
<path d="M21.3913 14.6087H19.0435V13.0435H19.8261C20.2582 13.0435 20.6087 12.6932 20.6087 12.2609C20.6087 11.8285 20.2582 11.4782 19.8261 11.4782C18.4806 11.4782 18.0897 11.4782 17.9919 11.4782C17.9717 11.4782 17.9631 11.4782 17.9622 11.4782C17.911 11.4782 17.7809 11.4782 17.4784 11.4782V9.91303H18.261C18.6931 9.91303 19.0436 9.56273 19.0436 9.13041C19.0436 8.69808 18.6931 8.34778 18.261 8.34778H17.4784V7.56516C17.4784 4.81083 15.4332 2.5312 12.7827 2.14941V0.782625C12.7827 0.350297 12.4321 0 12.0001 0C11.568 0 11.2174 0.350297 11.2174 0.782625V2.14945C8.56693 2.53125 6.52172 4.81092 6.52172 7.5652V8.34783H5.7391C5.30705 8.34783 4.95647 8.69812 4.95647 9.13045C4.95647 9.56278 5.30705 9.91308 5.7391 9.91308H6.52172V11.4783C6.21854 11.4783 6.08846 11.4783 6.03755 11.4783C6.01477 11.4783 6.00746 11.4783 6.00825 11.4783C5.91127 11.4783 5.52165 11.4783 4.17399 11.4783C3.74194 11.4783 3.39136 11.8286 3.39136 12.2609C3.39136 12.6932 3.74194 13.0435 4.17399 13.0435H4.95661V14.6087H2.60869C1.31405 14.6087 0.260864 15.6619 0.260864 16.9566V23.2174C0.260864 23.6497 0.611442 24 1.04349 24C10.1309 24 12.3955 24 22.9565 24C23.3886 24 23.7391 23.6497 23.7391 23.2174V16.9565C23.7391 15.6619 22.686 14.6087 21.3913 14.6087ZM8.08697 19.3043H6.52172V16.1739H8.08693V19.3043H8.08697ZM8.08697 9.91303H9.65218V11.4782H8.08697V9.91303ZM11.2174 19.3043H9.65218V16.1739H11.2174V19.3043ZM11.2174 9.91303H12.7826V11.4782H11.2174V9.91303ZM14.3478 19.3043H12.7826V16.1739H14.3478V19.3043ZM14.3478 9.91303H15.913V11.4782H14.3478V9.91303ZM17.4783 19.3043H15.9131V16.1739H17.4783V19.3043Z" fill="#6C63FF"/>
</g>
<defs>
<clipPath id="clip0">
<rect width="24" height="24" fill="white"/>
</clipPath>
</defs>
</svg>
