<svg width="36" height="36" viewBox="0 0 36 36" fill="none" xmlns="http://www.w3.org/2000/svg">
<path d="M8.3999 24V13.2C8.40195 12.5382 8.93809 12.002 9.5999 12H29.9999V1.8C29.9979 1.13818 29.4617 0.602049 28.7999 0.599998H10.1999V6.6C10.1999 7.26269 9.6626 7.8 8.9999 7.8H2.3999V34.2C2.40195 34.8618 2.93809 35.3979 3.5999 35.4H28.7999C29.4617 35.3979 29.9979 34.8618 29.9999 34.2V25.2H9.5999C8.93809 25.1979 8.40195 24.6618 8.3999 24Z" fill="#C0D8E2"/>
<path d="M11.9997 15.6H14.3997C14.7311 15.6 14.9997 15.8687 14.9997 16.2C14.9997 16.5313 15.2684 16.8 15.5997 16.8C15.9311 16.8 16.1997 16.5313 16.1997 16.2C16.1997 15.206 15.3937 14.4 14.3997 14.4H11.9997C11.0057 14.4 10.1997 15.206 10.1997 16.2V21C10.1997 21.994 11.0057 22.8 11.9997 22.8H14.3997C15.3937 22.8 16.1997 21.994 16.1997 21C16.1997 20.6687 15.9311 20.4 15.5997 20.4C15.2684 20.4 14.9997 20.6687 14.9997 21C14.9997 21.3313 14.7311 21.6 14.3997 21.6H11.9997C11.6684 21.6 11.3997 21.3313 11.3997 21V16.2C11.3997 15.8687 11.6684 15.6 11.9997 15.6Z" fill="#1C4E63"/>
<path d="M21.599 18H19.199C18.8676 18 18.599 17.7313 18.599 17.4V16.2C18.599 15.8687 18.8676 15.6 19.199 15.6H21.6294C21.783 15.5997 21.93 15.6615 22.037 15.7717C22.1477 15.8859 22.2063 16.0409 22.199 16.2C22.1958 16.5313 22.4615 16.8026 22.7931 16.8059C23.1245 16.8094 23.3958 16.5434 23.399 16.212C23.4101 15.7354 23.2288 15.2745 22.8957 14.9335C22.5626 14.5925 22.1061 14.4003 21.6294 14.4H19.199C18.2049 14.4 17.399 15.206 17.399 16.2V17.4C17.399 18.394 18.2049 19.2 19.199 19.2H21.599C21.9303 19.2 22.199 19.4687 22.199 19.8V21C22.199 21.3313 21.9303 21.6 21.599 21.6H19.199C18.8644 21.5968 18.5961 21.3231 18.599 20.9886C18.5925 20.6631 18.3245 20.4038 17.999 20.4079H17.9887C17.6571 20.4173 17.3943 20.6915 17.399 21.0234C17.4154 22.0069 18.2155 22.7965 19.199 22.8H21.599C22.593 22.8 23.399 21.994 23.399 21V19.8C23.399 18.806 22.593 18 21.599 18Z" fill="#1C4E63"/>
<path d="M31.4302 14.4455C31.1243 14.3177 30.773 14.4622 30.6456 14.7683L28.1993 20.6391L25.753 14.7683C25.6256 14.4625 25.2743 14.3177 24.9684 14.4455C24.6626 14.5729 24.5178 14.9242 24.6456 15.23L27.6456 22.43C27.7387 22.6536 27.957 22.7992 28.1993 22.7992C28.4416 22.7992 28.6598 22.6536 28.753 22.43L31.753 15.23C31.8807 14.9242 31.7363 14.5729 31.4302 14.4455Z" fill="#1C4E63"/>
<path d="M32.3998 11.4H30.5998V1.8C30.5998 0.805957 29.7938 0 28.7998 0H10.1998C10.1872 0 10.1764 0.00585938 10.1638 0.00673829C10.1154 0.0099609 10.0674 0.019043 10.0211 0.0336914C10.0018 0.0386719 9.98301 0.0445313 9.96455 0.0515625C9.90156 0.0773438 9.84356 0.113965 9.79287 0.159668L1.99287 7.35967C1.93926 7.41094 1.8959 7.47188 1.86514 7.53955C1.85635 7.55918 1.84873 7.5791 1.84229 7.59961C1.82266 7.65352 1.81094 7.71035 1.80771 7.76748C1.80771 7.78008 1.7998 7.7915 1.7998 7.8041V34.2C1.7998 35.194 2.60576 36 3.5998 36H28.7998C29.7938 36 30.5998 35.194 30.5998 34.2V25.8H32.3998C33.3938 25.8 34.1998 24.994 34.1998 24V13.2C34.1998 12.206 33.3938 11.4 32.3998 11.4ZM9.5998 1.97051V6.6C9.5998 6.93135 9.33115 7.2 8.9998 7.2H3.93467L9.5998 1.97051ZM29.3998 34.2C29.3998 34.5313 29.1312 34.8 28.7998 34.8H3.5998C3.26846 34.8 2.9998 34.5313 2.9998 34.2V8.4H8.9998C9.99385 8.4 10.7998 7.59404 10.7998 6.6V1.2H28.7998C29.1312 1.2 29.3998 1.46865 29.3998 1.8V11.4H9.5998C8.60576 11.4 7.7998 12.206 7.7998 13.2V24C7.7998 24.994 8.60576 25.8 9.5998 25.8H29.3998V34.2ZM32.9998 24C32.9998 24.3313 32.7312 24.6 32.3998 24.6H9.5998C9.26846 24.6 8.9998 24.3313 8.9998 24V13.2C8.9998 12.8687 9.26846 12.6 9.5998 12.6H32.3998C32.7312 12.6 32.9998 12.8687 32.9998 13.2V24Z" fill="#1C4E63"/>
</svg>
