<svg width="36" height="36" viewBox="0 0 36 36" fill="none" xmlns="http://www.w3.org/2000/svg">
<path d="M8.3999 24V13.2C8.40195 12.5382 8.93809 12.0021 9.5999 12H29.9999V1.8C29.9979 1.13818 29.4617 0.602051 28.7999 0.6H10.1999V6.6C10.1999 7.2627 9.6626 7.8 8.9999 7.8H2.3999V34.2C2.40195 34.8618 2.93809 35.398 3.5999 35.4H28.7999C29.4617 35.398 29.9979 34.8618 29.9999 34.2V25.2H9.5999C8.93809 25.1979 8.40195 24.6618 8.3999 24Z" fill="#C0D8E2"/>
<path d="M32.3998 11.4H30.5998V1.8C30.5998 0.805957 29.7938 0 28.7998 0H10.1998C10.1872 0 10.1764 0.00585938 10.1638 0.00673829C10.1154 0.0099609 10.0674 0.019043 10.0211 0.0336914C10.0018 0.0386719 9.98301 0.0445313 9.96455 0.0515625C9.90156 0.0776367 9.84356 0.114258 9.79287 0.159668L1.99287 7.35967C1.93926 7.41094 1.8959 7.47188 1.86514 7.53955C1.85635 7.55918 1.84873 7.5791 1.84229 7.59961C1.82266 7.65352 1.81094 7.71035 1.80771 7.76748C1.80771 7.78008 1.7998 7.7915 1.7998 7.8041V34.2C1.7998 35.194 2.60576 36 3.5998 36H28.7998C29.7938 36 30.5998 35.194 30.5998 34.2V25.8H32.3998C33.3938 25.8 34.1998 24.994 34.1998 24V13.2C34.1998 12.206 33.3938 11.4 32.3998 11.4ZM9.5998 1.97051V6.6C9.5998 6.93135 9.33115 7.2 8.9998 7.2H3.93467L9.5998 1.97051ZM29.3998 34.2C29.3998 34.5313 29.1312 34.8 28.7998 34.8H3.5998C3.26846 34.8 2.9998 34.5313 2.9998 34.2V8.4H8.9998C9.99385 8.4 10.7998 7.59404 10.7998 6.6V1.2H28.7998C29.1312 1.2 29.3998 1.46865 29.3998 1.8V11.4H9.5998C8.60576 11.4 7.7998 12.206 7.7998 13.2V24C7.7998 24.994 8.60576 25.8 9.5998 25.8H29.3998V34.2ZM32.9998 24C32.9998 24.3313 32.7312 24.6 32.3998 24.6H9.5998C9.26846 24.6 8.9998 24.3313 8.9998 24V13.2C8.9998 12.8687 9.26846 12.6 9.5998 12.6H32.3998C32.7312 12.6 32.9998 12.8687 32.9998 13.2V24Z" fill="#1C4E63"/>
<path d="M13.7998 14.4H11.3998C11.0685 14.4 10.7998 14.6687 10.7998 15V22.2C10.7998 22.5313 11.0685 22.8 11.3998 22.8H13.7998C15.456 22.7979 16.7978 21.4562 16.7998 19.8V17.4C16.7978 15.7438 15.456 14.4021 13.7998 14.4ZM15.5998 19.8C15.5998 20.794 14.7938 21.6 13.7998 21.6H11.9998V15.6H13.7998C14.7938 15.6 15.5998 16.406 15.5998 17.4V19.8Z" fill="#1C4E63"/>
<path d="M22.2 14.4H19.8C18.806 14.4 18 15.206 18 16.2V21C18 21.994 18.806 22.8 19.8 22.8H22.2C23.194 22.8 24 21.994 24 21V16.2C24 15.206 23.194 14.4 22.2 14.4ZM22.8 21C22.8 21.3313 22.5313 21.6 22.2 21.6H19.8C19.4687 21.6 19.2 21.3313 19.2 21V16.2C19.2 15.8687 19.4687 15.6 19.8 15.6H22.2C22.5313 15.6 22.8 15.8687 22.8 16.2V21Z" fill="#1C4E63"/>
<path d="M26.9997 15.6H29.3997C29.7311 15.6 29.9997 15.8687 29.9997 16.2C29.9997 16.5313 30.2684 16.8 30.5997 16.8C30.9311 16.8 31.1997 16.5313 31.1997 16.2C31.1997 15.206 30.3938 14.4 29.3997 14.4H26.9997C26.0057 14.4 25.1997 15.206 25.1997 16.2V21C25.1997 21.994 26.0057 22.8 26.9997 22.8H29.3997C30.3938 22.8 31.1997 21.994 31.1997 21C31.1997 20.6687 30.9311 20.4 30.5997 20.4C30.2684 20.4 29.9997 20.6687 29.9997 21C29.9997 21.3313 29.7311 21.6 29.3997 21.6H26.9997C26.6684 21.6 26.3997 21.3313 26.3997 21V16.2C26.3997 15.8687 26.6684 15.6 26.9997 15.6Z" fill="#1C4E63"/>
</svg>
