<svg width="24" height="24" viewBox="0 0 24 24" fill="none" xmlns="http://www.w3.org/2000/svg">
<g clip-path="url(#clip0)">
<path d="M23.619 10.8475L12.5189 0.207626C12.2291 -0.0705109 11.7709 -0.0705109 11.4811 0.207626L0.370056 10.8585C0.134949 11.0936 0 11.4175 0 11.7486C0 12.4376 0.561035 12.9986 1.25006 12.9986H3V22.4985C3 23.3265 3.672 23.9985 4.5 23.9985H8.75006C9.16406 23.9985 9.50006 23.6625 9.50006 23.2485V16.7486C9.50006 16.6115 9.61194 16.4985 9.75 16.4985H14.25C14.387 16.4985 14.4999 16.6115 14.4999 16.7486V23.2485C14.4999 23.6625 14.8359 23.9985 15.2499 23.9985H19.5C20.328 23.9985 21 23.3265 21 22.4985V12.9986H22.7499C23.439 12.9986 24 12.4376 24 11.7486C24 11.4175 23.8651 11.0936 23.619 10.8475V10.8475Z" fill="#1C4E63"/>
</g>
<defs>
<clipPath id="clip0">
<rect width="24" height="24" fill="white"/>
</clipPath>
</defs>
</svg>
