<svg width="24" height="24" viewBox="0 0 24 24" fill="none" xmlns="http://www.w3.org/2000/svg">
<path d="M14.1652 4.31237C14.4991 3.86255 14.6971 3.30601 14.6971 2.70404C14.6971 1.21303 13.4841 0 11.9931 0C10.502 0 9.28902 1.21303 9.28902 2.70404C9.28902 3.30741 9.48782 3.86523 9.82316 4.3156C8.73097 4.79279 7.90663 5.77084 7.64117 6.958H16.3543C16.0883 5.76826 15.2609 4.78838 14.1652 4.31237Z" fill="#009FFF"/>
<path d="M5.42267 8.36552V11.3045H8.00324V17.2227C8.44888 15.4342 10.0686 14.105 11.993 14.105C13.9119 14.105 15.5279 15.4265 15.979 17.2071V11.3045H18.5821V8.36552H5.42267Z" fill="#009FFF"/>
<path d="M21.6546 19.8249C21.9885 19.3751 22.1864 18.8185 22.1864 18.2165C22.1864 16.7255 20.9734 15.5125 19.4824 15.5125C17.9913 15.5125 16.7783 16.7255 16.7783 18.2165C16.7783 18.8199 16.9771 19.3777 17.3125 19.8281C17.1223 19.9112 16.9406 20.0095 16.7683 20.1215C16.3681 20.3812 16.0201 20.7142 15.7431 21.1017C15.4757 20.7275 15.1382 20.3992 14.741 20.137L14.5715 20.0249V20.0318C14.4407 19.9551 14.3052 19.8857 14.1651 19.8249C14.2904 19.656 14.3966 19.4722 14.4803 19.2765L14.4816 19.2735C14.6246 18.9386 14.697 18.583 14.697 18.2165C14.697 16.7255 13.4839 15.5125 11.9929 15.5125C10.5019 15.5125 9.28891 16.7255 9.28891 18.2165C9.28891 18.5842 9.36194 18.9411 9.50599 19.2772L9.50753 19.2808C9.59149 19.4761 9.69766 19.6596 9.82305 19.8281C9.68078 19.8902 9.54316 19.9609 9.4106 20.0393V20.0331L9.24808 20.1409C8.8548 20.4017 8.5203 20.7275 8.25461 21.0985C7.97725 20.7114 7.62897 20.3787 7.22861 20.1194C7.05503 20.0069 6.87194 19.9081 6.6804 19.8248C7.01434 19.375 7.21225 18.8185 7.21225 18.2165C7.21225 16.7255 5.99922 15.5125 4.50821 15.5125C3.01721 15.5125 1.80418 16.7255 1.80418 18.2165C1.80418 18.8199 2.00297 19.3777 2.33832 19.8281C1.00144 20.4121 0.0644531 21.7465 0.0644531 23.2962V24H23.9354V23.2963H23.9355C23.9355 21.7438 22.9952 20.4074 21.6546 19.8249Z" fill="#009FFF"/>
</svg>
