<svg width="81" height="32" viewBox="0 0 81 32" fill="none" xmlns="http://www.w3.org/2000/svg">
<g clip-path="url(#clip0)">
<path fill-rule="evenodd" clip-rule="evenodd" d="M80.4906 1.0338C80.4885 1.04336 80.4895 1.07826 80.493 1.11171C80.4988 1.16677 80.4512 1.17259 79.9739 1.17654C79.6851 1.17903 79.4323 1.18485 79.4126 1.18962C79.3926 1.1944 79.3374 1.20022 79.2896 1.20251C79.2214 1.20604 79.2069 1.22162 79.2216 1.27605C79.2383 1.33734 78.3602 1.39364 78.1 1.34794C78.0518 1.33963 77.9323 1.45452 77.9541 1.48859C77.9649 1.505 77.7411 1.52038 77.4573 1.52266C76.6565 1.52931 76.6732 1.52744 76.6052 1.612C76.5472 1.68409 76.5143 1.68846 75.9668 1.69552C75.3795 1.70321 75.2862 1.71256 75.3172 1.76055C75.3637 1.83285 75.202 1.86028 74.6712 1.86962C74.1568 1.87877 74.096 1.88625 74.0811 1.94151C74.0718 1.97558 74.0295 2.00488 73.9873 2.00675C73.9449 2.00862 73.7081 2.01589 73.4611 2.02295C73.2141 2.03002 72.9913 2.04331 72.9662 2.05266C72.9409 2.06201 72.9108 2.05453 72.8989 2.03604C72.8744 1.99823 72.7737 2.08112 72.7737 2.1393C72.7737 2.18147 72.7945 2.1794 72.2146 2.19519C71.6699 2.20994 71.4749 2.23632 71.4749 2.29574C71.4749 2.36202 71.4056 2.36991 70.8345 2.36825C70.5518 2.36742 70.3204 2.37677 70.3204 2.38882C70.3201 2.43016 70.1437 2.44325 70.1004 2.40502C70.0684 2.37677 70.0638 2.37801 70.0827 2.41022C70.0974 2.43515 70.0881 2.45364 70.0608 2.45406C70.0227 2.45447 70.0227 2.46008 70.0617 2.48376C70.1364 2.52906 70.0329 2.54007 69.5265 2.54007C69.2784 2.54007 69.0674 2.55004 69.0574 2.5623C69.0475 2.57476 68.999 2.59035 68.9492 2.59699C68.8996 2.60385 68.8418 2.63024 68.8208 2.656C68.7944 2.6882 68.6617 2.7069 68.3878 2.71646C68.1707 2.72394 67.949 2.73578 67.8949 2.74284C67.8408 2.7497 67.8053 2.74201 67.8159 2.7256C67.8512 2.67054 67.7852 2.69527 67.7328 2.75635C67.7044 2.7898 67.6914 2.79748 67.704 2.7738C67.7165 2.74991 67.7096 2.73038 67.6886 2.73038C67.6676 2.73038 67.6503 2.74222 67.6503 2.75676C67.6503 2.85669 67.3953 2.89347 66.622 2.9049C66.4229 2.9078 66.2752 2.93835 66.2969 2.972C66.3298 3.02332 66.1934 3.05095 65.8464 3.06383C65.2816 3.0844 65.2017 3.08357 65.1567 3.05698C65.1274 3.03973 65.1231 3.04617 65.1432 3.07734C65.1649 3.11099 65.156 3.11702 65.1092 3.09977C65.0642 3.08315 65.0404 3.09645 65.027 3.1459C65.0166 3.18392 64.9897 3.21633 64.9672 3.21778C64.9447 3.21924 64.7557 3.22692 64.5475 3.23482C64.339 3.24271 64.0963 3.25643 64.0078 3.26515C63.9188 3.27409 63.826 3.26432 63.7995 3.24334C63.7636 3.21467 63.7567 3.21716 63.7705 3.25352C63.814 3.36696 63.7346 3.39126 63.2635 3.40768C63.0072 3.41682 62.7535 3.42949 62.6994 3.43593C62.6453 3.44258 62.6098 3.43448 62.6204 3.41806C62.6502 3.37173 62.587 3.38316 62.5037 3.43905C62.4621 3.46689 62.418 3.47998 62.4054 3.46793C62.3929 3.45588 62.3827 3.46606 62.3827 3.49078C62.3827 3.5261 62.3699 3.52548 62.3216 3.48787C62.2881 3.46169 62.2716 3.45795 62.2853 3.47956C62.334 3.55789 62.2119 3.58033 61.7423 3.57949C61.4793 3.57908 61.2643 3.58884 61.2641 3.60131C61.2641 3.61377 61.2171 3.62063 61.1593 3.61689C61.076 3.61128 61.0572 3.62271 61.0671 3.67236C61.0814 3.74321 61.0963 3.74009 60.687 3.75069C60.5181 3.75526 60.29 3.76378 60.1796 3.77001C60.0691 3.77624 59.9594 3.7698 59.936 3.75588C59.9124 3.74196 59.8931 3.74695 59.8931 3.7671C59.8931 3.78746 59.8566 3.80491 59.812 3.80637C59.7364 3.80865 59.7355 3.81052 59.8016 3.83525C59.9193 3.8795 59.7072 3.91897 59.3089 3.92687C58.8941 3.93518 58.7187 3.9624 58.7027 4.02078C58.6449 4.22916 58.6726 24.5398 58.7306 24.6491C58.7662 24.7158 58.8133 24.7669 58.8359 24.7628C58.8582 24.7586 59.2842 24.7536 59.7823 24.752L60.6883 24.7486L60.7446 24.6662C60.8296 24.5415 60.8255 24.8799 60.8286 17.8884L60.8312 11.318H62.4548H64.0784V17.947V24.576L64.1595 24.6653L64.2407 24.7549H67.9391H71.6372L71.7184 24.6653L71.7996 24.576V16.6717V8.76748L71.7162 8.69248L71.6331 8.61748L68.929 8.60855L66.2252 8.59961V7.3705V6.14118H73.4412C78.2098 6.14118 80.6664 6.12934 80.6844 6.10649C80.7013 6.08467 80.7259 6.09111 80.7508 6.12394C80.7844 6.16819 80.7874 6.16694 80.7705 6.11625C80.7595 6.08363 80.7664 6.04748 80.7857 6.03606C80.805 6.02463 80.8114 6.00074 80.8 5.98287C80.7885 5.96521 80.8026 5.95067 80.8311 5.95067C80.9634 5.95067 80.966 5.90413 80.9645 3.61918C80.9628 1.2345 80.9597 1.17217 80.847 1.17217C80.792 1.17217 80.7788 1.1541 80.7907 1.09426C80.8047 1.023 80.5077 0.962957 80.4906 1.0338ZM64.0784 7.1108V8.75543H62.4548H60.8312V7.1108V5.46596H62.4548H64.0784V7.1108ZM80.748 8.59961C80.7476 8.62247 79.7988 8.6314 77.9569 8.626L75.1663 8.61769L75.1245 8.70557C75.0933 8.77122 75.0829 10.7946 75.0829 16.7039V24.6146H75.2934C75.4789 24.6146 75.5092 24.6047 75.5503 24.5309C75.5759 24.485 75.6287 24.4393 75.6672 24.4295C75.706 24.42 75.7465 24.3797 75.7573 24.3402C75.7703 24.2922 75.8062 24.2683 75.8644 24.2683C75.9127 24.2683 75.988 24.2315 76.0318 24.1864C76.0753 24.1416 76.1459 24.0944 76.1885 24.0815C76.2309 24.0686 76.274 24.0275 76.2842 23.9901C76.2946 23.9527 76.3331 23.922 76.3704 23.922C76.4305 23.922 76.5152 23.8634 76.7626 23.6504C76.8033 23.6153 76.8804 23.5762 76.9336 23.5634C76.9871 23.5505 77.0289 23.5285 77.0267 23.5145C77.0142 23.4368 77.0427 23.4057 77.1464 23.3839C77.2687 23.3581 77.3675 23.2866 77.3302 23.2509C77.3179 23.239 77.3441 23.2295 77.3885 23.2295C77.4705 23.2295 77.6054 23.1298 77.5725 23.0934C77.5625 23.0826 77.5894 23.0689 77.6322 23.0631C77.6794 23.0566 77.7186 23.0192 77.732 22.9677C77.7487 22.9043 77.7788 22.8829 77.8528 22.8821C77.9576 22.8809 78.0775 22.8123 78.0775 22.7535C78.0775 22.7342 78.1113 22.7097 78.1524 22.6993C78.1936 22.6891 78.2356 22.6498 78.2459 22.612C78.2581 22.5674 78.3072 22.5358 78.3871 22.5214C78.4544 22.5092 78.5265 22.4689 78.5475 22.4315C78.5691 22.3926 78.6228 22.3638 78.6735 22.3638C78.7365 22.3638 78.7679 22.3401 78.7835 22.2806C78.7993 22.2198 78.8382 22.1913 78.9281 22.1751C78.9956 22.1631 79.0673 22.1236 79.0874 22.0876C79.1073 22.0517 79.1684 22.0172 79.2231 22.0112C79.2941 22.0033 79.3255 21.9782 79.3338 21.9223C79.3418 21.8689 79.3701 21.8444 79.424 21.8439C79.5457 21.8433 79.6663 21.8051 79.6459 21.7735C79.6228 21.7378 79.7747 21.6335 79.8152 21.6574C79.8319 21.6673 79.8455 21.658 79.8455 21.6366C79.8455 21.6154 79.8602 21.6067 79.8782 21.6173C79.8962 21.6281 79.9024 21.6056 79.8921 21.5674C79.8763 21.5094 79.8908 21.4982 79.9825 21.4982C80.12 21.4982 80.2118 21.4656 80.1863 21.4257C80.1637 21.391 80.3858 21.2512 80.4259 21.2749C80.4402 21.2834 80.4436 21.2593 80.4333 21.2213C80.4175 21.1631 80.432 21.1519 80.5237 21.1519C80.6686 21.1519 80.7474 21.1205 80.7474 21.0628C80.7474 21.037 80.7798 20.9992 80.8197 20.9788C80.8593 20.9585 80.8918 20.9188 80.8918 20.8909C80.8918 20.8631 80.9076 20.8402 80.9266 20.8402C80.9459 20.8402 80.9524 20.817 80.9409 20.7883C80.9294 20.7596 80.9381 20.7364 80.9602 20.7364C80.982 20.7364 81 20.72 81 20.6996C81 20.6794 80.9879 20.6703 80.9729 20.679C80.958 20.688 80.9539 18.0413 80.9639 14.7979C80.9738 11.5544 80.9686 8.90855 80.9526 8.91811C80.9364 8.92767 80.9281 8.90772 80.9344 8.87386C80.9418 8.8348 80.918 8.80488 80.8699 8.79242C80.8264 8.7812 80.7978 8.74899 80.8028 8.71679C80.8078 8.68604 80.7976 8.6393 80.7803 8.61291C80.7627 8.58652 80.7482 8.58071 80.748 8.59961Z" fill="#369494"/>
<path fill-rule="evenodd" clip-rule="evenodd" d="M80.8554 1.03928C80.8852 1.06484 80.9307 1.10909 80.9567 1.13776C80.9965 1.18139 80.9987 1.17599 80.9707 1.10306C80.9523 1.05549 80.9069 1.01123 80.8694 1.00479C80.8099 0.994406 80.8082 0.998769 80.8554 1.03928ZM77.7744 1.40016C77.7417 1.48223 77.7478 1.51859 77.7945 1.51859C77.8177 1.51859 77.8261 1.50841 77.8134 1.49615C77.8004 1.48368 77.8246 1.44483 77.8671 1.40951C77.9433 1.34594 77.9435 1.34552 77.8701 1.34552C77.8296 1.34552 77.7865 1.37004 77.7744 1.40016ZM71.3755 2.20087C71.3216 2.21084 71.2943 2.24076 71.2943 2.28938C71.2943 2.35171 71.301 2.35524 71.3393 2.31306C71.3642 2.28543 71.4079 2.24367 71.4367 2.21978C71.4655 2.19589 71.4818 2.17864 71.4729 2.18113C71.4638 2.18383 71.4201 2.19277 71.3755 2.20087ZM70.1036 2.3783C70.1036 2.39409 70.1524 2.40011 70.2119 2.3916C70.2714 2.38328 70.3201 2.3704 70.3201 2.36292C70.3201 2.35565 70.2714 2.34963 70.2119 2.34963C70.1524 2.34963 70.1036 2.36251 70.1036 2.3783ZM68.8136 2.54575C68.789 2.55531 68.7686 2.57837 68.7686 2.59686C68.7686 2.61556 68.7874 2.61951 68.8106 2.6058C68.8336 2.59208 68.9026 2.56944 68.9639 2.55531L69.0754 2.52976L68.9671 2.52913C68.9076 2.52851 68.8385 2.53599 68.8136 2.54575ZM67.5286 2.72339C67.5189 2.73835 67.5665 2.74437 67.6347 2.73689C67.7027 2.72921 67.7583 2.71695 67.7583 2.70947C67.7583 2.68329 67.5459 2.69617 67.5286 2.72339ZM64.8217 3.13164C64.7921 3.20539 64.7938 3.21537 64.8358 3.21537C64.8557 3.21537 64.8679 3.19584 64.8629 3.17194C64.8579 3.14826 64.8741 3.13268 64.899 3.13746C64.9239 3.14223 64.9441 3.13039 64.9441 3.11149C64.9441 3.0556 64.8456 3.0718 64.8217 3.13164ZM63.5582 3.30678C63.5456 3.33815 63.5434 3.3716 63.5534 3.38095C63.5633 3.39051 63.5815 3.37285 63.5941 3.34168C63.6064 3.31052 63.6313 3.29348 63.6491 3.30408C63.6668 3.31468 63.6813 3.30678 63.6813 3.28663C63.6813 3.22804 63.583 3.24424 63.5582 3.30678ZM58.6787 3.96123C58.667 3.99073 58.6674 4.02439 58.6798 4.03623C58.6921 4.04807 58.7023 4.03311 58.7023 4.00278C58.7023 3.97245 58.7306 3.94045 58.7655 3.93172C58.8246 3.91677 58.8246 3.91552 58.7642 3.91178C58.7289 3.9097 58.6904 3.93193 58.6787 3.96123ZM0.0240293 4.79663C0.010824 4.8093 0 9.31272 0 14.804V24.7884L1.68681 24.7795L3.37363 24.7705L3.38315 23.9135L3.39289 23.0565H3.48252C3.56023 23.0565 3.57192 23.0719 3.57192 23.1747C3.57192 23.3368 3.60375 23.4026 3.68168 23.4026C3.72238 23.4026 3.75182 23.4323 3.75896 23.4805C3.76611 23.53 3.79944 23.5624 3.84945 23.5692C3.89859 23.5761 3.93258 23.6087 3.93951 23.6559C3.94665 23.703 3.98064 23.7357 4.02978 23.7425C4.07892 23.7492 4.11291 23.7818 4.12005 23.8289C4.12698 23.8759 4.16097 23.9089 4.20902 23.9154C4.25643 23.9218 4.2954 23.9592 4.30904 24.0107C4.3283 24.0845 4.35147 24.0953 4.49283 24.0953C4.64112 24.0953 4.65432 24.1024 4.65432 24.1817C4.65432 24.2503 4.67251 24.2684 4.742 24.2684C4.80564 24.2684 4.83292 24.29 4.84136 24.3463C4.8511 24.4125 4.87795 24.4258 5.02191 24.4346C5.16457 24.4435 5.19293 24.457 5.20245 24.5212C5.21176 24.5854 5.24012 24.5989 5.38148 24.6076C5.52544 24.6166 5.55272 24.6303 5.57177 24.703C5.59255 24.7826 5.60879 24.7878 5.84172 24.7878C6.07617 24.7878 6.0911 24.7925 6.11232 24.8744L6.13505 24.9608H6.83536C7.53416 24.9608 7.53589 24.961 7.54737 25.0387C7.55819 25.1129 7.57421 25.1166 7.88356 25.1166C8.18577 25.1166 8.21066 25.1112 8.244 25.0387C8.27885 24.9625 8.29184 24.9608 8.8837 24.9608H9.48768L9.50998 24.8759C9.53076 24.7965 9.55024 24.79 9.79032 24.7805C10.0267 24.7713 10.0492 24.7639 10.0598 24.6926C10.0704 24.6209 10.0904 24.6147 10.3042 24.6147C10.5196 24.6147 10.5398 24.608 10.5716 24.5281C10.6004 24.4553 10.6292 24.4414 10.7519 24.4414C10.8747 24.4414 10.9035 24.4275 10.9322 24.355C10.9565 24.2941 10.9937 24.2684 11.0578 24.2684C11.1308 24.2684 11.1487 24.2513 11.1487 24.1817C11.1487 24.1024 11.1622 24.0953 11.3104 24.0953C11.4529 24.0953 11.4747 24.0849 11.4949 24.0087C11.5111 23.9465 11.5419 23.922 11.6038 23.922C11.6717 23.922 11.6899 23.9037 11.6899 23.8356C11.6899 23.7662 11.7081 23.749 11.7802 23.749C11.8523 23.749 11.8705 23.7317 11.8705 23.6623C11.8705 23.5844 11.8848 23.5759 12.0155 23.5759C12.1374 23.5759 12.1664 23.5618 12.1952 23.4893C12.214 23.4417 12.2545 23.4026 12.2853 23.4026C12.316 23.4026 12.3567 23.3638 12.3755 23.3162C12.3944 23.2686 12.4351 23.2296 12.4658 23.2296C12.5279 23.2296 12.592 23.0968 12.592 22.9676C12.592 22.9007 12.6106 22.8832 12.6823 22.8832C12.7544 22.8832 12.7723 22.866 12.7723 22.7968C12.7723 22.7274 12.7905 22.7102 12.8626 22.7102C12.9347 22.7102 12.9529 22.6929 12.9529 22.6235C12.9529 22.5618 12.9724 22.5371 13.0211 22.5371C13.1014 22.5371 13.1332 22.4723 13.1332 22.3092C13.1332 22.2059 13.1447 22.1908 13.2235 22.1908C13.2956 22.1908 13.3135 22.1735 13.3135 22.1041C13.3135 22.0497 13.3341 22.0177 13.3685 22.0177C13.4302 22.0177 13.4941 21.8841 13.4941 21.7557C13.4941 21.6963 13.514 21.6714 13.5616 21.6714C13.6378 21.6714 13.6744 21.5521 13.6744 21.3034C13.6744 21.165 13.6822 21.152 13.7647 21.152C13.8474 21.152 13.8547 21.1393 13.8547 20.9961C13.8547 20.9103 13.8699 20.8403 13.8883 20.8403C13.9833 20.8403 14.0353 20.7236 14.0353 20.5089C14.0353 20.3143 14.0437 20.2862 14.1028 20.2862C14.1905 20.2862 14.2156 20.1653 14.2156 19.7452C14.2156 19.4437 14.2208 19.4207 14.2877 19.4207C14.4013 19.4207 14.4013 15.858 14.2877 15.8295C14.2225 15.8131 14.2156 15.7822 14.2156 15.5081C14.2156 15.1092 14.1894 14.9883 14.1028 14.9883C14.0437 14.9883 14.0353 14.9603 14.0353 14.7658C14.0353 14.5512 13.9833 14.4344 13.8883 14.4344C13.8699 14.4344 13.8547 14.374 13.8547 14.3002C13.8547 14.0748 13.8162 13.9495 13.7467 13.9495C13.6984 13.9495 13.6781 13.9094 13.6597 13.7765C13.6408 13.64 13.6218 13.6034 13.5696 13.6034C13.5172 13.6034 13.4982 13.5668 13.4794 13.4301C13.4599 13.2888 13.4423 13.2571 13.3845 13.2571C13.333 13.2571 13.3135 13.2334 13.3135 13.1704C13.3135 13.1025 13.2953 13.084 13.228 13.084C13.1527 13.084 13.1397 13.0634 13.1185 12.9107C13.0994 12.7719 13.081 12.7377 13.0263 12.7377C12.9827 12.7377 12.9535 12.7092 12.9464 12.6597C12.9388 12.6097 12.9057 12.5779 12.8535 12.5708C12.7948 12.5627 12.7723 12.5365 12.7723 12.4755C12.7723 12.4088 12.7537 12.3913 12.6823 12.3913C12.61 12.3913 12.592 12.3741 12.592 12.3049C12.592 12.2355 12.574 12.2183 12.5017 12.2183C12.4296 12.2183 12.4117 12.201 12.4117 12.1316C12.4117 12.0624 12.3935 12.0452 12.3214 12.0452C12.2493 12.0452 12.2311 12.0277 12.2311 11.9586C12.2311 11.89 12.2129 11.8719 12.1435 11.8719C12.08 11.8719 12.0525 11.8505 12.0443 11.794C12.0372 11.7452 12.0038 11.7121 11.9549 11.7055C11.9077 11.6991 11.8685 11.6619 11.8551 11.6103C11.8356 11.5364 11.8127 11.5258 11.6713 11.5258C11.5228 11.5258 11.5096 11.5185 11.5096 11.4392C11.5096 11.3698 11.4916 11.3525 11.4185 11.3525C11.3546 11.3525 11.3172 11.3268 11.2931 11.2661C11.2643 11.1934 11.2353 11.1794 11.1128 11.1794C10.9901 11.1794 10.961 11.1655 10.9322 11.0928C10.9006 11.0128 10.8803 11.0064 10.6651 11.0064C10.451 11.0064 10.4313 10.9999 10.4207 10.9285C10.4101 10.857 10.3876 10.8497 10.1512 10.8404C9.91068 10.831 9.89163 10.8244 9.87063 10.7448L9.84833 10.6592L8.34271 10.6684L6.83731 10.6773L6.82562 10.7552C6.81458 10.8298 6.79921 10.8331 6.47471 10.8331C6.14241 10.8331 6.13462 10.835 6.11232 10.9197C6.09219 10.9972 6.0714 11.0064 5.91337 11.0064C5.74906 11.0064 5.73673 11.0124 5.73673 11.0928C5.73673 11.1736 5.72482 11.1794 5.5564 11.1794C5.38906 11.1794 5.37607 11.1857 5.37607 11.2642C5.37607 11.3405 5.3594 11.3498 5.20462 11.3594C5.05828 11.3683 5.03165 11.3814 5.02169 11.4479C5.01346 11.5042 4.98597 11.5258 4.92254 11.5258C4.85305 11.5258 4.83487 11.5437 4.83487 11.6122C4.83487 11.6903 4.82036 11.6989 4.68961 11.6989C4.56795 11.6989 4.53872 11.7128 4.51015 11.7855C4.49131 11.8331 4.45062 11.8719 4.41988 11.8719C4.38914 11.8719 4.34844 11.911 4.3296 11.9586C4.31077 12.0061 4.27029 12.0452 4.23955 12.0452C4.20881 12.0452 4.16811 12.084 4.14928 12.1316C4.13044 12.1794 4.08974 12.2183 4.05879 12.2183C4.02783 12.2183 3.988 12.2534 3.97003 12.2962C3.95033 12.3433 3.93648 10.8761 3.93518 8.57372L3.9328 4.77357H1.99054C0.922206 4.77357 0.0374511 4.78396 0.0240293 4.79663ZM38.5216 4.79663C38.5084 4.8093 38.4975 6.40636 38.4975 8.3458V11.8719H38.4073C38.3352 11.8719 38.317 11.8547 38.317 11.7855C38.317 11.7161 38.299 11.6989 38.2269 11.6989C38.1546 11.6989 38.1367 11.6816 38.1367 11.6122C38.1367 11.5437 38.1185 11.5258 38.049 11.5258C37.9856 11.5258 37.9581 11.5042 37.9498 11.4479C37.9399 11.3814 37.913 11.3683 37.7669 11.3594C37.6121 11.3498 37.5955 11.3405 37.5955 11.2642C37.5955 11.1857 37.5823 11.1794 37.4151 11.1794C37.2467 11.1794 37.2346 11.1736 37.2346 11.0928C37.2346 11.012 37.2227 11.0064 37.0543 11.0064C36.8858 11.0064 36.8739 11.0006 36.8739 10.9197C36.8739 10.8352 36.8677 10.8331 36.6057 10.8331C36.3553 10.8331 36.3368 10.8281 36.3262 10.7552L36.3146 10.6773H34.7271H33.1397L33.128 10.7552C33.1174 10.8281 33.099 10.8331 32.8485 10.8331C32.5878 10.8331 32.5803 10.8356 32.5803 10.9183C32.5803 10.9997 32.5697 11.0037 32.3188 11.0134C32.0806 11.0228 32.0562 11.0305 32.046 11.0997C32.0365 11.1639 32.0081 11.1774 31.8655 11.1863C31.7215 11.1952 31.6947 11.2083 31.6849 11.2746C31.6765 11.3311 31.6492 11.3525 31.5855 11.3525C31.5161 11.3525 31.4979 11.3706 31.4979 11.4392C31.4979 11.52 31.486 11.5258 31.3175 11.5258C31.1491 11.5258 31.1372 11.5314 31.1372 11.6122C31.1372 11.6816 31.119 11.6989 31.0469 11.6989C30.9749 11.6989 30.9567 11.7161 30.9567 11.7855C30.9567 11.8547 30.9387 11.8719 30.8666 11.8719C30.7943 11.8719 30.7763 11.8894 30.7763 11.9586C30.7763 12.0379 30.7631 12.0452 30.6146 12.0452C30.4724 12.0452 30.4503 12.0554 30.4304 12.1316C30.4163 12.1854 30.3821 12.2183 30.3401 12.2183C30.2981 12.2183 30.2639 12.2511 30.2499 12.3049C30.2364 12.3566 30.2016 12.3913 30.1628 12.3913C30.0864 12.3913 30.0548 12.4582 30.0548 12.6192C30.0548 12.7225 30.0431 12.7377 29.9645 12.7377C29.8924 12.7377 29.8743 12.7549 29.8743 12.8243C29.8743 12.8935 29.8563 12.9107 29.7842 12.9107C29.7119 12.9107 29.6939 12.9282 29.6939 12.9974C29.6939 13.0665 29.676 13.084 29.6037 13.084C29.5212 13.084 29.5136 13.0969 29.5136 13.2373C29.5136 13.3701 29.5026 13.3923 29.4324 13.4019C29.3742 13.4098 29.348 13.4399 29.3398 13.508C29.332 13.5733 29.3075 13.6034 29.2625 13.6034C29.1846 13.6034 29.1527 13.6693 29.1527 13.8313C29.1527 13.9242 29.1382 13.9495 29.0843 13.9495C28.9971 13.9495 28.9724 14.0145 28.9724 14.2443C28.9724 14.4101 28.9638 14.4307 28.8912 14.4407C28.8222 14.45 28.8083 14.4758 28.7992 14.6129C28.7899 14.7509 28.7756 14.777 28.6999 14.7953C28.6139 14.8161 28.6115 14.8254 28.6115 15.1425C28.6115 15.4541 28.6081 15.4689 28.5304 15.4795C28.4531 15.4899 28.4487 15.5073 28.439 15.843C28.4293 16.1773 28.4245 16.1964 28.3487 16.2066L28.2689 16.2176L28.2593 17.9049L28.25 19.5923L28.3405 19.6141C28.431 19.6359 28.4312 19.637 28.4312 20.0471C28.4312 20.4566 28.4314 20.4582 28.5213 20.4798C28.6066 20.5004 28.6115 20.5145 28.6115 20.7395C28.6115 20.9646 28.6165 20.9787 28.7018 20.9992C28.7839 21.019 28.7919 21.0375 28.7919 21.2047C28.7919 21.432 28.8168 21.4983 28.9021 21.4983C28.9555 21.4983 28.9705 21.5299 28.9793 21.6626C28.9886 21.8018 29.0027 21.8288 29.0696 21.838C29.1346 21.8469 29.1508 21.8748 29.1599 21.9938C29.1683 22.1052 29.1895 22.1467 29.2519 22.1731C29.3017 22.1939 29.3331 22.2375 29.3331 22.2855C29.3331 22.346 29.3536 22.3638 29.4233 22.3638C29.5075 22.3638 29.5136 22.3755 29.5136 22.5371C29.5136 22.6985 29.5195 22.7102 29.6037 22.7102C29.676 22.7102 29.6939 22.7274 29.6939 22.7968C29.6939 22.866 29.7119 22.8832 29.7842 22.8832C29.8563 22.8832 29.8743 22.9007 29.8743 22.9699C29.8743 23.039 29.8924 23.0565 29.9645 23.0565C30.0431 23.0565 30.0548 23.0717 30.0548 23.1747C30.0548 23.3359 30.0864 23.4026 30.1628 23.4026C30.2016 23.4026 30.2364 23.4373 30.2499 23.4893C30.2639 23.5431 30.2981 23.5759 30.3401 23.5759C30.3821 23.5759 30.4163 23.6085 30.4304 23.6623C30.4503 23.7386 30.4724 23.749 30.6146 23.749C30.7631 23.749 30.7763 23.756 30.7763 23.8356C30.7763 23.9048 30.7943 23.922 30.8666 23.922C30.9387 23.922 30.9567 23.9395 30.9567 24.0087C30.9567 24.0772 30.9749 24.0953 31.0443 24.0953C31.108 24.0953 31.1353 24.1167 31.1437 24.1732C31.1535 24.2397 31.1803 24.2526 31.3266 24.2615C31.4812 24.2711 31.4979 24.2804 31.4979 24.3569C31.4979 24.4354 31.5111 24.4414 31.6784 24.4414C31.8466 24.4414 31.8587 24.4472 31.8587 24.5281C31.8587 24.6089 31.8709 24.6147 32.0391 24.6147C32.2075 24.6147 32.2196 24.6203 32.2196 24.7011C32.2196 24.7857 32.2257 24.7878 32.4876 24.7878C32.7381 24.7878 32.7565 24.793 32.7673 24.8657C32.7786 24.9425 32.7868 24.9438 33.3988 24.9531C34.0088 24.9623 34.019 24.9637 34.0303 25.0396C34.0409 25.1121 34.0614 25.1173 34.3753 25.1266L34.7091 25.1366V25.0495V24.9623L35.4216 24.9529C36.1256 24.9438 36.1344 24.9428 36.1455 24.8671C36.1559 24.7975 36.1801 24.7898 36.4161 24.7805C36.6538 24.7713 36.6763 24.7639 36.6869 24.6926C36.6971 24.6238 36.7194 24.6147 36.8763 24.6147C37.0421 24.6147 37.0543 24.6087 37.0543 24.5281C37.0543 24.4472 37.0664 24.4414 37.2346 24.4414C37.4019 24.4414 37.4151 24.4354 37.4151 24.3569C37.4151 24.2804 37.4318 24.2711 37.5864 24.2615C37.7327 24.2526 37.7596 24.2397 37.7693 24.1732C37.7777 24.1167 37.805 24.0953 37.8687 24.0953C37.9382 24.0953 37.9563 24.0772 37.9563 24.0087C37.9563 23.9395 37.9743 23.922 38.0464 23.922C38.1187 23.922 38.1367 23.9048 38.1367 23.8356C38.1367 23.7662 38.1546 23.749 38.2269 23.749C38.299 23.749 38.317 23.7317 38.317 23.6623C38.317 23.5931 38.3352 23.5759 38.4073 23.5759C38.4794 23.5759 38.4975 23.5584 38.4975 23.4893C38.4975 23.4201 38.5155 23.4026 38.5876 23.4026C38.6599 23.4026 38.6779 23.3854 38.6779 23.3162C38.6779 23.1971 38.8474 23.1893 38.8647 23.3075C38.872 23.3573 38.9054 23.3893 38.9567 23.3964C39.0364 23.4072 39.0372 23.4136 39.047 24.0889L39.0567 24.7705L40.8024 24.7795C42.0614 24.7859 42.562 24.7776 42.5975 24.7493C42.6336 24.7204 42.6466 24.6093 42.6466 24.3334V23.9567H42.5565H42.4663V14.365V4.77357H40.5058C39.4278 4.77357 38.5348 4.78396 38.5216 4.79663ZM80.9129 6.03738C80.8647 6.10802 80.8631 6.12401 80.9045 6.12401C80.9324 6.12401 80.9629 6.08495 80.9725 6.03738C80.982 5.9898 80.9857 5.95074 80.9809 5.95074C80.9759 5.95074 80.9454 5.9898 80.9129 6.03738ZM75.06 8.63334C75.0489 8.66118 75.0481 8.70398 75.0582 8.7285C75.0686 8.75281 75.0781 8.73909 75.0799 8.69796C75.0814 8.65661 75.1028 8.61506 75.1277 8.6053C75.163 8.59179 75.1628 8.58722 75.1266 8.58514C75.1011 8.58369 75.0712 8.6053 75.06 8.63334ZM80.7982 8.60841C80.8131 8.62275 80.8443 8.63501 80.8675 8.63605C80.8906 8.63688 80.9056 8.6562 80.9006 8.67926C80.8956 8.70211 80.9077 8.72102 80.9277 8.72102C80.9859 8.72102 80.969 8.62649 80.9067 8.60343C80.8274 8.57434 80.7657 8.57725 80.7982 8.60841ZM47.9023 10.6831C47.8891 10.6958 47.8783 10.7348 47.8783 10.7697C47.8783 10.8256 47.846 10.8331 47.6077 10.8331C47.3431 10.8331 47.3371 10.8352 47.3371 10.9197C47.3371 11.0039 47.3297 11.0064 47.0853 11.0064C46.848 11.0064 46.832 11.0112 46.8112 11.0912C46.7922 11.1639 46.7649 11.1774 46.621 11.1863C46.4796 11.195 46.4512 11.2087 46.4419 11.2727C46.4326 11.3351 46.4034 11.3506 46.2796 11.3594C46.1633 11.3675 46.1202 11.388 46.0927 11.4479C46.0709 11.4957 46.0256 11.5258 45.9754 11.5258C45.9131 11.5258 45.8938 11.5455 45.8938 11.6103C45.8938 11.6851 45.876 11.6961 45.7405 11.7055C45.623 11.7136 45.579 11.734 45.5522 11.7928C45.5329 11.8347 45.4842 11.8738 45.444 11.8792C45.3996 11.8854 45.3662 11.9201 45.3591 11.9673C45.3509 12.0236 45.3234 12.0452 45.2599 12.0452C45.1905 12.0452 45.1723 12.0631 45.1723 12.1316C45.1723 12.201 45.1543 12.2183 45.082 12.2183C45.0099 12.2183 44.9919 12.2355 44.9919 12.3049C44.9919 12.3741 44.9738 12.3913 44.9017 12.3913C44.8296 12.3913 44.8114 12.4088 44.8114 12.478C44.8114 12.5471 44.7934 12.5646 44.7213 12.5646C44.649 12.5646 44.6311 12.5818 44.6311 12.651C44.6311 12.7129 44.6116 12.7377 44.5627 12.7377C44.4826 12.7377 44.4507 12.8025 44.4507 12.9656C44.4507 13.0688 44.4391 13.084 44.3605 13.084C44.2884 13.084 44.2702 13.1012 44.2702 13.1704C44.2702 13.2398 44.2522 13.2571 44.1801 13.2571C44.0975 13.2571 44.0899 13.2699 44.0899 13.4104C44.0899 13.5431 44.0788 13.5654 44.0087 13.5749C43.9505 13.5828 43.9243 13.6129 43.916 13.6813C43.9082 13.7463 43.8838 13.7765 43.8388 13.7765C43.7608 13.7765 43.729 13.8423 43.729 14.0044C43.729 14.0974 43.7145 14.1228 43.6608 14.1228C43.5733 14.1228 43.5487 14.1876 43.5487 14.4174C43.5487 14.5832 43.5402 14.6038 43.4675 14.6137C43.3967 14.6233 43.385 14.6482 43.3755 14.8065C43.3664 14.9563 43.3528 14.9883 43.298 14.9883C43.2071 14.9883 43.1878 15.0542 43.1878 15.3683C43.1878 15.628 43.1843 15.6397 43.0977 15.6604L43.0075 15.6822V16.1798V16.6776L42.9168 16.6994L42.8261 16.7213L42.8356 17.8199L42.8451 18.9185L42.9254 18.9295C43.0036 18.9401 43.0057 18.953 43.0155 19.4489C43.0252 19.9465 43.0272 19.9575 43.1066 19.9683C43.1843 19.9789 43.1878 19.9937 43.1878 20.3053C43.1878 20.624 43.1897 20.6317 43.2781 20.6529C43.3601 20.6726 43.3683 20.6913 43.3683 20.8586C43.3683 21.0869 43.393 21.152 43.4803 21.152C43.5342 21.152 43.5487 21.1773 43.5487 21.2704C43.5487 21.4324 43.5805 21.4983 43.6586 21.4983C43.7108 21.4983 43.7273 21.5297 43.7359 21.6454C43.7446 21.759 43.7656 21.8004 43.8284 21.8268C43.8782 21.8477 43.9095 21.8912 43.9095 21.9394C43.9095 21.9992 43.9301 22.0177 43.9977 22.0177C44.0773 22.0177 44.0871 22.0337 44.097 22.182C44.1063 22.3225 44.1197 22.3482 44.189 22.3576C44.2479 22.3657 44.2702 22.3919 44.2702 22.4529C44.2702 22.5196 44.289 22.5371 44.3605 22.5371C44.4326 22.5371 44.4507 22.5543 44.4507 22.6235C44.4507 22.6929 44.4687 22.7102 44.5408 22.7102C44.6131 22.7102 44.6311 22.7274 44.6311 22.7968C44.6311 22.866 44.649 22.8832 44.7213 22.8832C44.8017 22.8832 44.8114 22.8976 44.8114 23.0149C44.8114 23.1807 44.8623 23.2296 45.0352 23.2296C45.1573 23.2296 45.1723 23.2389 45.1723 23.3162C45.1723 23.3854 45.1902 23.4026 45.2625 23.4026C45.3346 23.4026 45.3526 23.4201 45.3526 23.4893C45.3526 23.5584 45.3708 23.5759 45.4429 23.5759C45.515 23.5759 45.5331 23.5931 45.5331 23.6623C45.5331 23.7431 45.5451 23.749 45.7135 23.749C45.8819 23.749 45.8938 23.7548 45.8938 23.8356C45.8938 23.9023 45.9124 23.922 45.9754 23.922C46.0256 23.922 46.0709 23.9521 46.0927 23.9999C46.1198 24.0591 46.1635 24.0803 46.2739 24.0882C46.3833 24.0959 46.4281 24.1173 46.4543 24.1747C46.4846 24.2409 46.5218 24.2524 46.7327 24.2613C46.9643 24.2711 46.9762 24.2756 46.9762 24.3565C46.9762 24.4391 46.9838 24.4414 47.2429 24.4414C47.4973 24.4414 47.5107 24.4456 47.5323 24.5281L47.5549 24.6147H48.9613H50.3678V24.5281V24.4414H50.7287H51.0893V24.355C51.0893 24.2742 51.1015 24.2684 51.2699 24.2684C51.4381 24.2684 51.4502 24.2625 51.4502 24.1817C51.4502 24.1009 51.4623 24.0953 51.6305 24.0953C51.7979 24.0953 51.8111 24.0891 51.8111 24.0105C51.8111 23.9341 51.8277 23.9249 51.9823 23.9154C52.1286 23.9062 52.1555 23.8934 52.1652 23.8269C52.1737 23.7706 52.2009 23.749 52.2646 23.749C52.3341 23.749 52.3523 23.7309 52.3523 23.6623C52.3523 23.5931 52.3702 23.5759 52.4423 23.5759C52.5146 23.5759 52.5326 23.5584 52.5326 23.4893C52.5326 23.4201 52.5506 23.4026 52.6229 23.4026C52.695 23.4026 52.7129 23.3854 52.7129 23.3162C52.7129 23.2468 52.7311 23.2296 52.8032 23.2296C52.8753 23.2296 52.8935 23.2123 52.8935 23.1429C52.8935 23.0744 52.9117 23.0565 52.9811 23.0565C53.0493 23.0565 53.0723 23.0351 53.084 22.9611C53.0922 22.9088 53.1015 23.1504 53.1045 23.498L53.1099 24.1298H53.0197H52.9294V24.6294C52.9294 25.1214 52.9281 25.1293 52.8482 25.1403C52.779 25.1497 52.7655 25.1754 52.756 25.3173C52.7467 25.4568 52.7309 25.4887 52.6569 25.5158C52.5835 25.5426 52.5687 25.5712 52.5687 25.688C52.5687 25.8058 52.5542 25.8336 52.4785 25.8613C52.4031 25.8887 52.3882 25.9167 52.3882 26.031C52.3882 26.1467 52.3757 26.1698 52.307 26.1791C52.2562 26.186 52.2217 26.218 52.2148 26.2647C52.2081 26.3102 52.1693 26.3478 52.1157 26.3607C52.0587 26.3744 52.0276 26.4066 52.0276 26.4513C52.0276 26.4937 51.992 26.5338 51.9373 26.5537C51.8877 26.5718 51.847 26.6094 51.847 26.637C51.847 26.6647 51.8106 26.6923 51.7658 26.6985C51.7145 26.7054 51.6805 26.7374 51.6734 26.7854C51.6665 26.8325 51.6325 26.8652 51.5833 26.8718C51.5333 26.8787 51.5 26.9113 51.4928 26.9605C51.4835 27.0237 51.4582 27.0384 51.3604 27.0384C51.1939 27.0384 51.1255 27.0694 51.1255 27.1442C51.1255 27.1955 51.0924 27.2098 50.954 27.2184C50.8079 27.2275 50.7811 27.2404 50.7711 27.3069C50.7605 27.3796 50.7421 27.3848 50.494 27.3848C50.1974 27.3848 50.0431 27.4259 50.0431 27.5051C50.0431 27.5512 49.916 27.5578 49.051 27.5578C48.2036 27.5578 48.0586 27.5506 48.0586 27.5071C48.0586 27.4166 47.9259 27.3848 47.5464 27.3848C47.1946 27.3848 47.1719 27.3804 47.1381 27.3069C47.1072 27.2389 47.0717 27.2277 46.8591 27.2188C46.6777 27.2111 46.6155 27.1959 46.6155 27.1593C46.6155 27.0823 46.4932 27.0384 46.2776 27.0384C46.0995 27.0384 46.078 27.0305 46.0678 26.9605C46.0581 26.8947 46.0308 26.8812 45.8927 26.8724C45.7646 26.8643 45.7217 26.8456 45.6942 26.7858C45.668 26.7285 45.6232 26.7071 45.5139 26.6994C45.4043 26.6915 45.3597 26.6701 45.3333 26.6127C45.3065 26.5535 45.2625 26.534 45.1392 26.5255C44.8335 26.5045 44.8114 26.5226 44.8114 26.7931C44.8114 27.0181 44.8066 27.0322 44.7213 27.0528C44.6352 27.0735 44.6311 27.0862 44.6311 27.3312C44.6311 27.5709 44.6257 27.5884 44.5499 27.5988C44.4733 27.6092 44.4681 27.6278 44.4583 27.9279C44.4486 28.2262 44.4432 28.2466 44.3683 28.2569C44.2953 28.2667 44.2873 28.2898 44.2778 28.5166C44.2683 28.7431 44.26 28.7664 44.1875 28.7763C44.1124 28.7865 44.1074 28.8065 44.0977 29.1248L44.0873 29.4624H44.1762C44.241 29.4624 44.2685 29.4836 44.2767 29.5403C44.2867 29.6066 44.3135 29.6199 44.4575 29.6286C44.6001 29.6375 44.6283 29.651 44.6378 29.7152C44.6473 29.7794 44.6757 29.7929 44.8183 29.8019C44.9608 29.8106 44.9891 29.8241 44.9987 29.8883C45.0088 29.9575 45.0335 29.9654 45.2693 29.9745C45.5052 29.9839 45.5295 29.9915 45.5399 30.0611C45.55 30.1307 45.5743 30.1384 45.8126 30.1478C46.0393 30.1565 46.0743 30.1665 46.0743 30.2219C46.0743 30.314 46.1412 30.3281 46.5824 30.3281C46.9509 30.3281 46.9762 30.3325 46.9762 30.3967C46.9762 30.5026 47.0015 30.5037 49.1951 30.4935L51.2517 30.4839L51.2634 30.406C51.2744 30.3312 51.2891 30.3281 51.6307 30.3281C52.0117 30.3281 52.1717 30.2924 52.1717 30.2076C52.1717 30.1663 52.2181 30.1548 52.3854 30.1548C52.6454 30.1548 52.7129 30.1326 52.7129 30.0474C52.7129 29.992 52.7404 29.9818 52.8911 29.9818C53.1065 29.9818 53.2541 29.933 53.2541 29.8615C53.2541 29.8287 53.2875 29.8087 53.342 29.8087C53.476 29.8087 53.615 29.7474 53.615 29.6882C53.615 29.6552 53.6483 29.6354 53.7053 29.6354C53.7769 29.6354 53.7953 29.618 53.7953 29.5509C53.7953 29.4744 53.812 29.4651 53.9668 29.4555C54.1131 29.4466 54.1397 29.4337 54.1497 29.3672C54.1579 29.3113 54.1854 29.2893 54.2465 29.2893C54.3751 29.2893 54.5171 29.228 54.5171 29.1728C54.5171 29.1457 54.5576 29.1138 54.6071 29.1019C54.6641 29.0882 54.6974 29.0558 54.6974 29.014C54.6974 28.9716 54.7266 28.9438 54.7786 28.9367C54.8308 28.9297 54.8639 28.8979 54.8712 28.8478C54.8797 28.7913 54.907 28.7699 54.9706 28.7699C55.0401 28.7699 55.0583 28.7518 55.0583 28.6833C55.0583 28.6141 55.0762 28.5966 55.1483 28.5966C55.218 28.5966 55.2386 28.5788 55.2386 28.5183C55.2386 28.4703 55.27 28.4267 55.3198 28.4059C55.3826 28.3793 55.4036 28.3382 55.412 28.2245C55.422 28.0945 55.4334 28.0772 55.5114 28.0772C55.5806 28.0772 55.5995 28.0594 55.5995 27.9931C55.5995 27.9322 55.6218 27.9058 55.6807 27.8979C55.7499 27.8884 55.7634 27.8628 55.7727 27.7224C55.7826 27.5738 55.7924 27.5578 55.872 27.5578C55.9538 27.5578 55.9601 27.5454 55.9601 27.3848C55.9601 27.2231 55.9662 27.2117 56.0504 27.2117C56.1344 27.2117 56.1407 27.1999 56.1407 27.0409C56.1407 26.8903 56.1502 26.8689 56.2219 26.8591C56.2961 26.849 56.3039 26.8273 56.3134 26.5992C56.3232 26.3726 56.3312 26.3495 56.4037 26.3395C56.4788 26.3293 56.484 26.3094 56.4938 25.9911C56.5039 25.6581 56.5052 25.6535 56.5929 25.6535H56.6819V25.1341V24.6147H56.7719H56.8622V18.3125V12.0105H56.9533H57.0443L57.0345 11.4304L57.0246 10.8506L55.3377 10.8414L53.6511 10.8325V10.9193C53.6511 10.9889 53.6332 11.0064 53.5609 11.0064H53.4706L53.4652 11.7076C53.4624 12.0932 53.4531 12.3658 53.4448 12.3134C53.4332 12.2397 53.41 12.2183 53.342 12.2183C53.2723 12.2183 53.2541 12.2004 53.2541 12.1316C53.2541 12.0624 53.2362 12.0452 53.1641 12.0452C53.0918 12.0452 53.0738 12.0277 53.0738 11.9586C53.0738 11.8894 53.0558 11.8719 52.9835 11.8719C52.9114 11.8719 52.8935 11.8547 52.8935 11.7855C52.8935 11.7161 52.8753 11.6989 52.8032 11.6989C52.7311 11.6989 52.7129 11.6816 52.7129 11.6122C52.7129 11.543 52.695 11.5258 52.6229 11.5258C52.5506 11.5258 52.5326 11.5083 52.5326 11.4392C52.5326 11.3583 52.5205 11.3525 52.3523 11.3525C52.1839 11.3525 52.1717 11.3469 52.1717 11.2661C52.1717 11.1975 52.1535 11.1794 52.0841 11.1794C52.0206 11.1794 51.9931 11.1578 51.9849 11.1015C51.9743 11.0301 51.9518 11.0228 51.7117 11.0134C51.461 11.0037 51.4502 10.9997 51.4502 10.9183C51.4502 10.8354 51.4428 10.8331 51.1796 10.8331C50.9151 10.8331 50.909 10.8312 50.909 10.7467V10.66H49.4177C48.5974 10.66 47.9155 10.6704 47.9023 10.6831ZM14.7657 15.655L14.7748 20.4767L14.8551 20.4877C14.933 20.4983 14.9356 20.5118 14.9451 20.9897C14.9551 21.4694 14.957 21.4813 15.0365 21.4921C15.1123 21.5022 15.1177 21.5199 15.1177 21.7603C15.1177 22.0104 15.1201 22.0177 15.2062 22.0177C15.2913 22.0177 15.2952 22.0279 15.3054 22.2687C15.3151 22.4972 15.3231 22.5207 15.3954 22.5304C15.4623 22.5396 15.4764 22.5668 15.4855 22.7037C15.4948 22.8419 15.5086 22.8676 15.5777 22.877C15.6364 22.8851 15.6589 22.9113 15.6589 22.9724C15.6589 23.039 15.6775 23.0565 15.7489 23.0565C15.8331 23.0565 15.8392 23.0679 15.8392 23.2296C15.8392 23.3912 15.8453 23.4026 15.9295 23.4026C16.0016 23.4026 16.0195 23.4201 16.0195 23.4893C16.0195 23.5584 16.0377 23.5759 16.1098 23.5759C16.1819 23.5759 16.2001 23.5931 16.2001 23.6623C16.2001 23.7317 16.218 23.749 16.2901 23.749C16.3624 23.749 16.3804 23.7662 16.3804 23.8356C16.3804 23.9048 16.3984 23.922 16.4707 23.922C16.5428 23.922 16.5607 23.9395 16.5607 24.0087C16.5607 24.0778 16.5789 24.0953 16.651 24.0953C16.7231 24.0953 16.7413 24.1125 16.7413 24.1817C16.7413 24.2625 16.7532 24.2684 16.9216 24.2684C17.09 24.2684 17.1019 24.2742 17.1019 24.355C17.1019 24.4242 17.1201 24.4414 17.1922 24.4414C17.2643 24.4414 17.2825 24.4589 17.2825 24.5281C17.2825 24.6087 17.2946 24.6147 17.4602 24.6147C17.6174 24.6147 17.6395 24.6238 17.6496 24.6926C17.6602 24.7639 17.683 24.7713 17.9204 24.7805C18.1566 24.7898 18.1809 24.7975 18.191 24.8671C18.2023 24.9421 18.214 24.9438 18.8225 24.9531C19.4326 24.9623 19.4425 24.9637 19.4538 25.0396C19.4646 25.1121 19.4852 25.1173 19.7991 25.1266L20.1327 25.1366V25.0487V24.9608H20.8356H21.5385L21.5608 24.8759C21.5811 24.7975 21.6021 24.79 21.8229 24.7807C22.0303 24.7718 22.0678 24.7601 22.0979 24.6941C22.1254 24.6342 22.1682 24.6155 22.2964 24.6076C22.4334 24.5989 22.4618 24.585 22.4711 24.5212C22.4806 24.457 22.509 24.4435 22.6516 24.4346C22.7956 24.4258 22.8224 24.4125 22.8322 24.3463C22.8406 24.29 22.8679 24.2684 22.9315 24.2684C23.0004 24.2684 23.0192 24.2503 23.0192 24.1838C23.0192 24.109 23.037 24.098 23.1725 24.0886C23.2909 24.0803 23.334 24.0602 23.3615 23.9999C23.3833 23.9521 23.4286 23.922 23.4788 23.922C23.5418 23.922 23.5604 23.9023 23.5604 23.8356C23.5604 23.7662 23.5784 23.749 23.6505 23.749C23.7228 23.749 23.7407 23.7317 23.7407 23.6623C23.7407 23.5931 23.7587 23.5759 23.831 23.5759C23.9031 23.5759 23.9211 23.5584 23.9211 23.4893C23.9211 23.4201 23.9392 23.4026 24.0113 23.4026C24.0808 23.4026 24.1016 23.3848 24.1018 23.3247C24.102 23.2759 24.1352 23.2321 24.191 23.2073L24.28 23.1676L24.2899 23.6228C24.2997 24.0629 24.3027 24.0783 24.3798 24.0889C24.4553 24.099 24.4603 24.1188 24.4701 24.435L24.4804 24.7705H26.1761H27.8718L27.8809 17.8909C27.887 13.4553 27.8775 10.9796 27.8547 10.9218L27.8192 10.8325L25.8793 10.8416L23.9392 10.8506L23.9299 15.1489C23.9213 19.2933 23.9185 19.4479 23.8544 19.4639C23.7745 19.4841 23.7407 19.6214 23.7407 19.927C23.7407 20.1206 23.7323 20.1478 23.6723 20.1478C23.5924 20.1478 23.5604 20.2125 23.5604 20.3733C23.5604 20.4672 23.5448 20.4913 23.4792 20.5002C23.41 20.5098 23.3963 20.5355 23.387 20.6758C23.377 20.8243 23.3673 20.8403 23.2879 20.8403C23.2177 20.8403 23.1995 20.8582 23.1995 20.9269C23.1995 20.9961 23.1816 21.0134 23.1093 21.0134C23.0372 21.0134 23.0192 21.0308 23.0192 21.1C23.0192 21.1692 23.001 21.1866 22.9289 21.1866C22.8568 21.1866 22.8387 21.2039 22.8387 21.2731C22.8387 21.3425 22.8207 21.3597 22.7486 21.3597C22.6769 21.3597 22.6583 21.3772 22.6583 21.4445C22.6583 21.5207 22.6417 21.5301 22.4869 21.5396C22.3421 21.5486 22.3139 21.5619 22.3044 21.6263C22.2949 21.6905 22.2665 21.704 22.1238 21.7129C21.9799 21.7216 21.953 21.7349 21.9433 21.8012L21.9316 21.8791H21.1224H20.3132V21.7925C20.3132 21.7117 20.3011 21.7061 20.1327 21.7061C19.9645 21.7061 19.9523 21.7002 19.9523 21.6194C19.9523 21.5509 19.9341 21.5328 19.8647 21.5328C19.8012 21.5328 19.7737 21.5114 19.7655 21.4549C19.7581 21.4056 19.7248 21.373 19.675 21.3662C19.6257 21.3595 19.5917 21.3269 19.5847 21.2797C19.5776 21.2317 19.5436 21.1997 19.4923 21.1929C19.4336 21.1848 19.4111 21.1586 19.4111 21.0975C19.4111 21.0315 19.3923 21.0134 19.3228 21.0134C19.2434 21.0134 19.2336 20.9974 19.2237 20.849C19.2143 20.7086 19.2007 20.6828 19.1314 20.6735C19.0598 20.6637 19.0503 20.6423 19.0503 20.4917C19.0503 20.3334 19.044 20.3209 18.9615 20.3209C18.8738 20.3209 18.8723 20.3163 18.8621 19.9833C18.8524 19.6629 18.8476 19.6451 18.7708 19.6347L18.6896 19.6235V15.2283V10.8331H16.7231H14.7566L14.7657 15.655ZM7.5833 13.6466C7.59434 13.7202 7.61361 13.7251 7.92859 13.7345C8.25634 13.7443 8.2624 13.7459 8.2624 13.8296C8.2624 13.909 8.27517 13.915 8.44273 13.915C8.61115 13.915 8.62327 13.9206 8.62327 14.0015C8.62327 14.0684 8.64189 14.0881 8.70488 14.0881C8.75489 14.0881 8.80035 14.1182 8.822 14.166C8.84971 14.2263 8.89257 14.2464 9.01099 14.2545C9.1465 14.2641 9.16447 14.2751 9.16447 14.3499C9.16447 14.4164 9.18309 14.4344 9.25258 14.4344C9.33051 14.4344 9.34199 14.4515 9.35173 14.5815C9.36017 14.6943 9.38139 14.7365 9.44265 14.7623C9.48638 14.7808 9.52708 14.8275 9.53271 14.8662C9.53898 14.9081 9.57514 14.9407 9.62254 14.9472C9.68749 14.9561 9.70373 14.9842 9.7126 15.103C9.72104 15.2135 9.74269 15.2561 9.80309 15.2815C9.86284 15.3068 9.88535 15.3496 9.89336 15.4547C9.90137 15.5597 9.92367 15.6027 9.98363 15.6278C10.046 15.6542 10.0655 15.6953 10.0737 15.8183C10.0828 15.9503 10.0973 15.9771 10.1644 15.9862C10.2397 15.9964 10.2449 16.0161 10.2545 16.3323C10.2644 16.6504 10.269 16.6683 10.346 16.6789L10.4272 16.6899V17.8128V18.9358H10.3369H10.2469V19.2821V19.6284H10.1566C10.073 19.6284 10.0663 19.6405 10.0663 19.7932C10.0663 19.9312 10.0531 19.9638 9.98515 19.9924C9.92367 20.0184 9.90137 20.0602 9.89336 20.1663C9.88535 20.2713 9.86284 20.3143 9.80309 20.3394C9.74226 20.365 9.72104 20.4073 9.7126 20.5199C9.70264 20.65 9.69117 20.6672 9.61324 20.6672C9.54461 20.6672 9.52513 20.6853 9.52513 20.7497C9.52513 20.8042 9.49958 20.8387 9.45044 20.8511C9.40909 20.8613 9.3671 20.9008 9.35692 20.9384C9.34653 20.9762 9.30605 21.015 9.26665 21.025C9.22725 21.0348 9.18677 21.0738 9.17638 21.1116C9.1662 21.1493 9.12551 21.1883 9.08632 21.1981C9.04692 21.208 9.00623 21.2475 8.99562 21.286C8.98523 21.3244 8.94171 21.3605 8.89907 21.3664C8.85058 21.373 8.81724 21.4063 8.81009 21.4549C8.80187 21.5114 8.77437 21.5328 8.71095 21.5328C8.64146 21.5328 8.62327 21.5509 8.62327 21.6194C8.62327 21.7002 8.61115 21.7061 8.44273 21.7061C8.27452 21.7061 8.2624 21.7117 8.2624 21.7925C8.2624 21.8785 8.26002 21.8791 7.93681 21.8791C7.6227 21.8791 7.60993 21.8822 7.57681 21.9658L7.5426 22.0522H7.00054H6.45847V21.9658C6.45847 21.881 6.45241 21.8791 6.18787 21.8791C5.92311 21.8791 5.91727 21.8772 5.91727 21.7925C5.91727 21.7117 5.90515 21.7061 5.73673 21.7061C5.56852 21.7061 5.5564 21.7002 5.5564 21.6194C5.5564 21.5525 5.53778 21.5328 5.47478 21.5328C5.42478 21.5328 5.37932 21.5027 5.35745 21.4549C5.32996 21.3948 5.28688 21.3747 5.16846 21.3664C5.03295 21.357 5.0152 21.346 5.0152 21.2712C5.0152 21.2041 4.99658 21.1866 4.92492 21.1866C4.85284 21.1866 4.83487 21.1692 4.83487 21.1C4.83487 21.0312 4.81668 21.0134 4.74654 21.0134C4.66688 21.0134 4.65735 20.9974 4.6474 20.849C4.63787 20.7086 4.62445 20.6828 4.55518 20.6735C4.49651 20.6654 4.474 20.6392 4.474 20.5781C4.474 20.5114 4.45516 20.494 4.38372 20.494C4.29951 20.494 4.29367 20.4825 4.29367 20.3209C4.29367 20.1601 4.28739 20.1478 4.20469 20.1478C4.11745 20.1478 4.11572 20.142 4.10555 19.8275C4.09602 19.5333 4.08844 19.5044 4.01398 19.473L3.9328 19.4388V17.8912V16.3438L4.01398 16.3325C4.09104 16.3221 4.09559 16.3043 4.10555 15.9839C4.11572 15.6509 4.11702 15.6463 4.20469 15.6463C4.28739 15.6463 4.29367 15.634 4.29367 15.4732C4.29367 15.3116 4.29951 15.3 4.38372 15.3C4.46793 15.3 4.474 15.2885 4.474 15.1269C4.474 14.9653 4.48006 14.9538 4.56427 14.9538C4.63636 14.9538 4.65432 14.9364 4.65432 14.8672C4.65432 14.798 4.67251 14.7806 4.7446 14.7806C4.81603 14.7806 4.83487 14.7631 4.83487 14.6964C4.83487 14.6355 4.85717 14.6092 4.91605 14.6013C4.96735 14.5942 5.00134 14.5624 5.00849 14.5144C5.01541 14.4673 5.0494 14.4346 5.09854 14.4278C5.14855 14.4209 5.18189 14.3885 5.18903 14.3391C5.19747 14.2828 5.22475 14.2612 5.28839 14.2612C5.35724 14.2612 5.37607 14.2431 5.37607 14.1766C5.37607 14.1018 5.39382 14.0908 5.52934 14.0814C5.64667 14.0733 5.69083 14.0528 5.71746 13.9944C5.74387 13.9371 5.78846 13.9157 5.898 13.908C6.00754 13.9003 6.05214 13.8787 6.07855 13.8211C6.10864 13.7553 6.14587 13.7432 6.34915 13.7345C6.5535 13.7258 6.58944 13.7141 6.6204 13.6466C6.6546 13.5716 6.67365 13.5687 7.11397 13.5687C7.56144 13.5687 7.57204 13.5706 7.5833 13.6466ZM36.1883 13.6553C36.1883 13.7399 36.1944 13.7418 36.4589 13.7418C36.7235 13.7418 36.7295 13.7438 36.7295 13.8284C36.7295 13.9078 36.743 13.915 36.8893 13.915C37.0276 13.915 37.0508 13.9254 37.0608 13.9929C37.069 14.0486 37.1004 14.074 37.1716 14.0817C37.2413 14.0893 37.2707 14.1124 37.2707 14.1589C37.2707 14.2009 37.3041 14.2333 37.361 14.247C37.4171 14.2605 37.4511 14.2934 37.4511 14.3337C37.4511 14.3738 37.4853 14.4066 37.5413 14.4201C37.5963 14.4334 37.6316 14.4666 37.6316 14.5051C37.6316 14.5398 37.6624 14.5776 37.7 14.589C37.7379 14.6006 37.7788 14.6484 37.7909 14.6954C37.805 14.7488 37.839 14.7806 37.8823 14.7806C37.9262 14.7806 37.9555 14.8088 37.9628 14.8585C37.9702 14.9079 38.0033 14.9403 38.0535 14.9472C38.1204 14.9563 38.1345 14.9835 38.1438 15.1205C38.1531 15.2586 38.1668 15.2844 38.2358 15.2937C38.3094 15.3039 38.317 15.3236 38.317 15.5073C38.317 15.7545 38.3404 15.8194 38.4291 15.8194C38.4954 15.8194 38.4975 15.8784 38.4975 17.7239C38.4975 19.5694 38.4954 19.6284 38.4291 19.6284C38.3402 19.6284 38.317 19.6933 38.317 19.9428C38.317 20.1208 38.3081 20.1478 38.2488 20.1478C38.1689 20.1478 38.1367 20.2125 38.1367 20.3733C38.1367 20.4672 38.1213 20.4913 38.0555 20.5002C37.9862 20.5098 37.9728 20.5355 37.9633 20.6758C37.9533 20.8243 37.9438 20.8403 37.8641 20.8403C37.794 20.8403 37.7758 20.8582 37.7758 20.9269C37.7758 20.9961 37.7578 21.0134 37.6857 21.0134C37.6134 21.0134 37.5955 21.0308 37.5955 21.1C37.5955 21.1692 37.5775 21.1866 37.5052 21.1866C37.4331 21.1866 37.4151 21.2039 37.4151 21.2731C37.4151 21.3512 37.4006 21.3597 37.2699 21.3597C37.1482 21.3597 37.119 21.3736 37.0904 21.4464C37.0694 21.4993 37.0276 21.5328 36.983 21.5328C36.9291 21.5328 36.9099 21.5556 36.9099 21.6194C36.9099 21.7002 36.898 21.7061 36.7295 21.7061C36.5618 21.7061 36.5492 21.7119 36.5492 21.7914V21.877L36.1072 21.8868C35.6798 21.8962 35.6649 21.8991 35.6536 21.9743C35.6448 22.0343 35.6186 22.0522 35.5389 22.0522C35.4592 22.0522 35.433 22.0343 35.4242 21.9743C35.4129 21.8991 35.398 21.8962 34.9706 21.8868L34.5286 21.877V21.7914C34.5286 21.7121 34.5158 21.7061 34.3509 21.7061C34.1937 21.7061 34.1716 21.6969 34.1614 21.6281C34.1515 21.5617 34.1246 21.5486 33.9785 21.5396C33.8237 21.5301 33.8071 21.5207 33.8071 21.4445C33.8071 21.3772 33.7884 21.3597 33.7168 21.3597C33.6447 21.3597 33.6267 21.3425 33.6267 21.2731C33.6267 21.2045 33.6085 21.1866 33.5391 21.1866C33.4754 21.1866 33.4481 21.165 33.4397 21.1087C33.4323 21.0587 33.3992 21.0269 33.347 21.0196C33.2884 21.0117 33.2659 20.9853 33.2659 20.9245C33.2659 20.8578 33.247 20.8403 33.1756 20.8403C33.1035 20.8403 33.0855 20.8231 33.0855 20.7537C33.0855 20.6849 33.0673 20.6672 32.9972 20.6672C32.9175 20.6672 32.908 20.6513 32.8981 20.5027C32.8885 20.3623 32.8751 20.3367 32.8058 20.3271C32.7342 20.3174 32.7247 20.296 32.7247 20.1454C32.7247 19.9864 32.7184 19.9746 32.6344 19.9746C32.5502 19.9746 32.5443 19.9631 32.5443 19.8015C32.5443 19.6399 32.5383 19.6284 32.4541 19.6284H32.3638V19.2135C32.3638 18.7999 32.3636 18.7987 32.2737 18.7768L32.1835 18.7552V17.8068V16.8582H32.2737C32.3638 16.8582 32.3638 16.858 32.3638 16.5158C32.3638 16.1792 32.3655 16.1728 32.4541 16.1516C32.5396 16.131 32.5443 16.1171 32.5443 15.8879C32.5443 15.6534 32.5469 15.6463 32.6344 15.6463C32.7184 15.6463 32.7247 15.6347 32.7247 15.4755C32.7247 15.3249 32.7342 15.3035 32.8058 15.2937C32.8751 15.2844 32.8885 15.2586 32.8981 15.1182C32.908 14.9698 32.9175 14.9538 32.9972 14.9538C33.0673 14.9538 33.0855 14.936 33.0855 14.8672C33.0855 14.798 33.1035 14.7806 33.1756 14.7806C33.2468 14.7806 33.2659 14.7631 33.2659 14.6979C33.2659 14.6385 33.2914 14.609 33.3561 14.5934C33.4122 14.5799 33.4462 14.547 33.4462 14.5067C33.4462 14.4664 33.4804 14.4336 33.5365 14.4201C33.5934 14.4064 33.6267 14.374 33.6267 14.3322C33.6267 14.29 33.656 14.262 33.7079 14.2549C33.7601 14.2479 33.7932 14.2161 33.8006 14.166C33.8088 14.1097 33.8363 14.0881 33.8997 14.0881C33.9692 14.0881 33.9874 14.07 33.9874 14.0015C33.9874 13.9206 33.9995 13.915 34.1679 13.915C34.3361 13.915 34.3483 13.9092 34.3483 13.8284C34.3483 13.7438 34.3543 13.7418 34.6189 13.7418C34.8834 13.7418 34.8895 13.7399 34.8895 13.6553V13.5687H35.5389H36.1883V13.6553ZM50.9452 13.6553C50.9452 13.7362 50.9571 13.7418 51.1255 13.7418C51.2939 13.7418 51.3058 13.7476 51.3058 13.8284C51.3058 13.9092 51.3179 13.915 51.4864 13.915C51.6546 13.915 51.6667 13.9206 51.6667 14.0015C51.6667 14.0709 51.6846 14.0881 51.757 14.0881C51.829 14.0881 51.847 14.1053 51.847 14.1747C51.847 14.2439 51.8652 14.2612 51.9373 14.2612C52.0094 14.2612 52.0276 14.2786 52.0276 14.3478C52.0276 14.417 52.0455 14.4344 52.1176 14.4344C52.1899 14.4344 52.2079 14.4517 52.2079 14.5209C52.2079 14.5903 52.2259 14.6075 52.2982 14.6075C52.3702 14.6075 52.3882 14.6247 52.3882 14.6941C52.3882 14.7633 52.4064 14.7806 52.4785 14.7806C52.5627 14.7806 52.5687 14.7922 52.5687 14.9538C52.5687 15.1144 52.575 15.1269 52.6573 15.1269C52.7424 15.1269 52.7463 15.1373 52.7564 15.3779C52.7662 15.6083 52.7738 15.6299 52.8482 15.6401L52.9294 15.6511V17.7264V19.8015H52.8393C52.7554 19.8015 52.7491 19.8131 52.7491 19.9723C52.7491 20.1229 52.7396 20.1443 52.6679 20.1541C52.5986 20.1634 52.5852 20.1892 52.5757 20.3296C52.5657 20.478 52.5562 20.494 52.4765 20.494C52.4064 20.494 52.3882 20.5118 52.3882 20.5806C52.3882 20.6498 52.3702 20.6672 52.2982 20.6672C52.2267 20.6672 52.2079 20.6847 52.2079 20.7514C52.2079 20.8123 52.1854 20.8387 52.1267 20.8465C52.0754 20.8536 52.0414 20.8854 52.0343 20.9334C52.0273 20.9806 51.9933 21.0132 51.944 21.02C51.8942 21.0269 51.8609 21.0593 51.8535 21.1087C51.8453 21.165 51.8178 21.1866 51.7544 21.1866C51.6855 21.1866 51.6667 21.2047 51.6667 21.2712C51.6667 21.3477 51.65 21.357 51.4952 21.3666C51.3491 21.3755 51.3223 21.3884 51.3123 21.4549C51.3021 21.5236 51.28 21.5328 51.1229 21.5328C50.9573 21.5328 50.9452 21.5388 50.9452 21.6194V21.7061H50.0251H49.1051V21.6194C49.1051 21.5401 49.0916 21.5328 48.9451 21.5328C48.8068 21.5328 48.7838 21.5224 48.7739 21.4549C48.7639 21.3884 48.7371 21.3755 48.5909 21.3666C48.4361 21.357 48.4195 21.3477 48.4195 21.2712C48.4195 21.2041 48.4009 21.1866 48.3292 21.1866C48.2571 21.1866 48.2392 21.1692 48.2392 21.1C48.2392 21.0308 48.221 21.0134 48.1489 21.0134C48.0768 21.0134 48.0586 20.9961 48.0586 20.9269C48.0586 20.8576 48.0406 20.8403 47.9686 20.8403C47.8962 20.8403 47.8783 20.8231 47.8783 20.7537C47.8783 20.6855 47.8599 20.6672 47.7921 20.6672C47.7179 20.6672 47.7027 20.6461 47.6819 20.5131C47.6653 20.4055 47.6375 20.3527 47.5899 20.3384C47.5527 20.3269 47.517 20.2833 47.5107 20.2413C47.5035 20.1929 47.4698 20.1611 47.4183 20.1541C47.3503 20.1447 47.3371 20.1215 47.3371 20.0111C47.3371 19.798 47.2975 19.6667 47.2265 19.6449C47.1773 19.6299 47.1576 19.5836 47.1496 19.4622C47.1403 19.3237 47.1267 19.2977 47.0574 19.2883C46.9779 19.2775 46.9762 19.268 46.9762 18.8151C46.9762 18.3048 46.9643 18.2433 46.8643 18.2433C46.7474 18.2433 46.7602 17.2143 46.8771 17.1983C46.9554 17.1875 46.9587 17.1731 46.9684 16.7651C46.9773 16.3895 46.9859 16.3406 47.0453 16.3226C47.1247 16.2983 47.1568 16.1684 47.1568 15.8694C47.1568 15.6694 47.1635 15.6502 47.2379 15.6401C47.307 15.6307 47.3206 15.6047 47.3299 15.4666C47.3392 15.3299 47.3533 15.3027 47.4202 15.2935C47.4873 15.2844 47.5012 15.2574 47.5105 15.1182C47.5204 14.9698 47.53 14.9538 47.6096 14.9538C47.6798 14.9538 47.698 14.936 47.698 14.8672C47.698 14.804 47.7172 14.7806 47.7694 14.7806C47.8153 14.7806 47.8488 14.75 47.8631 14.6954C47.8755 14.6484 47.9164 14.6006 47.954 14.589C47.9917 14.5776 48.0227 14.5398 48.0227 14.5051C48.0227 14.4666 48.0577 14.4334 48.1127 14.4201C48.1697 14.4064 48.203 14.374 48.203 14.3322C48.203 14.2855 48.2324 14.2626 48.3021 14.2549C48.3723 14.247 48.4048 14.2217 48.4128 14.1681C48.4197 14.1209 48.4537 14.0883 48.5028 14.0817C48.5528 14.0748 48.5862 14.0422 48.5933 13.9929C48.6033 13.9254 48.6264 13.915 48.7641 13.915C48.9031 13.915 48.926 13.9042 48.9455 13.8299C48.9659 13.7517 48.9869 13.744 49.2077 13.7347C49.4255 13.7256 49.4488 13.7172 49.4592 13.6466C49.4709 13.5687 49.4709 13.5687 50.208 13.5687H50.9452V13.6553ZM80.8824 20.967C80.8279 20.9947 80.7846 21.0358 80.7861 21.0587C80.7882 21.0888 80.7939 21.0882 80.8071 21.0568C80.8172 21.0329 80.8465 21.0134 80.872 21.0134C80.8978 21.0134 80.9389 20.9901 80.9636 20.9614C81.0162 20.9008 81.0132 20.901 80.8824 20.967ZM77.8729 22.9092C77.8943 22.9431 77.803 23.0241 77.7744 22.9967C77.7623 22.985 77.7525 22.9938 77.7525 23.016C77.7525 23.0715 77.819 23.0667 77.8813 23.007C77.942 22.9489 77.9491 22.8832 77.8948 22.8832C77.8738 22.8832 77.8638 22.8951 77.8729 22.9092ZM77.1557 23.435C77.1672 23.4527 77.1401 23.4915 77.0957 23.5215C77.0511 23.5514 77.036 23.5759 77.0615 23.5759C77.118 23.5759 77.2113 23.4911 77.2113 23.4398C77.2113 23.4195 77.1942 23.4026 77.173 23.4026C77.152 23.4026 77.1442 23.4172 77.1557 23.435ZM75.893 24.3006C75.9042 24.3184 75.8774 24.3573 75.8328 24.3872C75.7884 24.4171 75.773 24.4414 75.7988 24.4414C75.8553 24.4414 75.9486 24.3569 75.9486 24.3056C75.9486 24.285 75.9313 24.2684 75.9103 24.2684C75.8893 24.2684 75.8815 24.2829 75.893 24.3006ZM75.0483 24.569C75.0409 24.7537 75.231 24.8582 75.3559 24.7383C75.4165 24.6801 75.4234 24.6147 75.3691 24.6147C75.3481 24.6147 75.3399 24.6284 75.3507 24.6452C75.3799 24.6905 75.2892 24.7508 75.2091 24.7394C75.1708 24.734 75.1193 24.6843 75.0946 24.6288C75.0699 24.5734 75.0491 24.5466 75.0483 24.569Z" fill="#1C4E63"/>
<path fill-rule="evenodd" clip-rule="evenodd" d="M80.7831 1.11402C80.7831 1.17053 80.8703 1.17406 80.9173 1.11942C80.9329 1.10155 80.9307 1.09823 80.9127 1.11236C80.8946 1.12648 80.8582 1.12067 80.8316 1.09948C80.7945 1.07018 80.7831 1.07351 80.7831 1.11402ZM77.9119 1.42753C77.882 1.48923 77.8837 1.50793 77.9192 1.50793C77.9448 1.50793 77.958 1.49609 77.9487 1.48155C77.9392 1.467 77.948 1.4454 77.9682 1.43335C78.0108 1.40821 78.0177 1.34629 77.9779 1.34671C77.963 1.34692 77.9333 1.38328 77.9119 1.42753ZM74.0191 1.91057C74.0038 1.94485 74.0012 1.98246 74.0135 1.9943C74.0503 2.02941 74.0798 1.97996 74.0629 1.91182C74.0479 1.85136 74.046 1.85136 74.0191 1.91057ZM67.5572 2.78088C67.5189 2.80768 67.4957 2.8376 67.5057 2.84695C67.5156 2.85651 67.555 2.84238 67.5931 2.81558C67.6315 2.78878 67.6546 2.75907 67.6447 2.74951C67.6347 2.73995 67.5953 2.75408 67.5572 2.78088ZM64.98 3.11247C64.98 3.13137 64.9556 3.14696 64.9259 3.14696C64.896 3.14696 64.8731 3.17438 64.8746 3.20762C64.8761 3.24086 64.8854 3.24959 64.8949 3.22694C64.9047 3.20409 64.9359 3.19412 64.9642 3.20471C64.9993 3.21739 65.0162 3.19993 65.0162 3.15069C65.0162 3.1106 65.0079 3.07777 64.998 3.07777C64.988 3.07777 64.98 3.09335 64.98 3.11247ZM63.7067 3.32023C63.6963 3.35825 63.7026 3.38941 63.7205 3.38941C63.7385 3.38941 63.7532 3.38297 63.7532 3.37487C63.7532 3.36697 63.7632 3.33581 63.7751 3.30568C63.7872 3.27556 63.7809 3.25084 63.7614 3.25084C63.7417 3.25084 63.7171 3.282 63.7067 3.32023ZM80.8372 5.95172C80.7889 5.97167 80.7828 5.98247 80.8192 5.98413C80.8515 5.98579 80.8303 6.01405 80.7668 6.05436C80.672 6.11419 80.669 6.12105 80.7398 6.11585C80.7833 6.11274 80.8192 6.09695 80.8192 6.08095C80.8192 6.06474 80.8355 6.06121 80.8552 6.07305C80.8751 6.08469 80.8913 6.07015 80.8913 6.04044C80.8913 6.01073 80.9075 5.98642 80.9275 5.98642C80.9472 5.98642 80.9634 5.97084 80.9634 5.95172C80.9634 5.91121 80.9357 5.91121 80.8372 5.95172ZM66.223 7.37156C66.223 8.04761 66.2278 8.32414 66.2336 7.98611C66.2397 7.64809 66.2397 7.09482 66.2336 6.75679C66.2278 6.41877 66.223 6.6953 66.223 7.37156ZM80.7976 8.70683C80.7976 8.77477 80.8155 8.79077 80.8896 8.7889L80.9816 8.78682L80.898 8.75462C80.8521 8.73696 80.824 8.70787 80.8355 8.69001C80.8469 8.67214 80.8432 8.6497 80.827 8.63994C80.8108 8.63038 80.7976 8.6605 80.7976 8.70683ZM75.0641 16.7033C75.0641 21.0266 75.0682 22.8003 75.0734 20.645C75.0786 18.4897 75.0786 14.9525 75.0734 12.7848C75.0682 10.6168 75.0641 12.3802 75.0641 16.7033ZM80.8913 20.9126C80.8913 20.9518 80.9075 20.9743 80.9275 20.9624C80.9472 20.9508 80.9634 20.9186 80.9634 20.8912C80.9634 20.8637 80.9472 20.8413 80.9275 20.8413C80.9075 20.8413 80.8913 20.8733 80.8913 20.9126ZM76.742 23.7022C76.742 23.7483 76.752 23.7506 76.7962 23.7152C76.826 23.6916 76.8503 23.6664 76.8503 23.6592C76.8503 23.6519 76.826 23.6461 76.7962 23.6461C76.7665 23.6461 76.742 23.6714 76.742 23.7022ZM71.6842 24.6923C71.6309 24.7453 71.5995 24.7887 71.6147 24.7887C71.6489 24.7887 71.8171 24.6196 71.7963 24.6059C71.7879 24.6005 71.7374 24.6396 71.6842 24.6923Z" fill="white"/>
<path fill-rule="evenodd" clip-rule="evenodd" d="M67.5535 8.60868C68.2843 8.61387 69.4695 8.61387 70.1874 8.60868C70.9052 8.60348 70.3073 8.59912 68.8589 8.59912C67.4102 8.59912 66.8229 8.60348 67.5535 8.60868ZM76.718 8.60868C77.4486 8.61387 78.6338 8.61387 79.3516 8.60868C80.0695 8.60348 79.4718 8.59912 78.0231 8.59912C76.5744 8.59912 75.9871 8.60348 76.718 8.60868ZM59.2545 24.7793C59.4887 24.7853 59.8622 24.7853 60.0843 24.7793C60.3064 24.7731 60.1148 24.7683 59.6585 24.7683C59.2019 24.7683 59.0203 24.7733 59.2545 24.7793ZM66.1771 24.7793C67.143 24.7845 68.7342 24.7845 69.7129 24.7793C70.6918 24.7743 69.9014 24.7699 67.9568 24.7699C66.0121 24.7699 65.2112 24.7743 66.1771 24.7793Z" fill="white"/>
<path fill-rule="evenodd" clip-rule="evenodd" d="M80.9805 3.56165C80.9805 4.80905 80.9851 5.31952 80.9905 4.69582C80.9961 4.07212 80.9961 3.05139 80.9905 2.4277C80.9851 1.804 80.9805 2.31426 80.9805 3.56165ZM69.821 6.15014C71.7987 6.15492 75.0459 6.15492 77.0369 6.15014C79.0279 6.14516 77.4097 6.141 73.4407 6.141C69.472 6.141 67.843 6.14516 69.821 6.15014ZM80.9812 14.7982C80.9812 18.0357 80.9853 19.3654 80.9905 17.7527C80.9957 16.1403 80.9957 13.4914 80.9905 11.8663C80.9853 10.2412 80.9812 11.5604 80.9812 14.7982Z" fill="white"/>
</g>
<defs>
<clipPath id="clip0">
<rect width="81" height="32" fill="white"/>
</clipPath>
</defs>
</svg>
