<svg width="36" height="36" viewBox="0 0 36 36" fill="none" xmlns="http://www.w3.org/2000/svg">
<path d="M8.3999 23.9998V13.1998C8.40195 12.538 8.93809 12.0019 9.5999 11.9998H29.9999V1.79981C29.9979 1.13799 29.4617 0.601859 28.7999 0.599808H10.1999V6.59981C10.1999 7.2625 9.6626 7.79981 8.9999 7.79981H2.3999V34.1998C2.40195 34.8616 2.93809 35.3978 3.5999 35.3998H28.7999C29.4617 35.3978 29.9979 34.8616 29.9999 34.1998V25.1998H9.5999C8.93809 25.1978 8.40195 24.6616 8.3999 23.9998Z" fill="#C1D8E2"/>
<path d="M32.3998 11.4H30.5998V1.8C30.5998 0.805957 29.7938 0 28.7998 0H10.1998C10.1872 0 10.1764 0.00585938 10.1638 0.00673829C10.1154 0.0099609 10.0674 0.019043 10.0211 0.0336914C10.0018 0.0386719 9.98301 0.0445313 9.96455 0.0515625C9.90156 0.0773438 9.84355 0.113965 9.79287 0.159668L1.99287 7.35967C1.93926 7.41094 1.8959 7.47188 1.86514 7.53955C1.85635 7.55918 1.84873 7.5791 1.84229 7.59961C1.82266 7.65352 1.81094 7.71035 1.80771 7.76748C1.80771 7.78008 1.7998 7.7915 1.7998 7.8041V34.2C1.7998 35.194 2.60576 36 3.5998 36H28.7998C29.7938 36 30.5998 35.194 30.5998 34.2V25.8H32.3998C33.3938 25.8 34.1998 24.994 34.1998 24V13.2C34.1998 12.206 33.3938 11.4 32.3998 11.4ZM9.5998 1.97051V6.6C9.5998 6.93135 9.33115 7.2 8.9998 7.2H3.93467L9.5998 1.97051ZM29.3998 34.2C29.3998 34.5313 29.1312 34.8 28.7998 34.8H3.5998C3.26846 34.8 2.9998 34.5313 2.9998 34.2V8.4H8.9998C9.99385 8.4 10.7998 7.59404 10.7998 6.6V1.2H28.7998C29.1312 1.2 29.3998 1.46865 29.3998 1.8V11.4H9.5998C8.60576 11.4 7.7998 12.206 7.7998 13.2V24C7.7998 24.994 8.60576 25.8 9.5998 25.8H29.3998V34.2ZM32.9998 24C32.9998 24.3313 32.7311 24.6 32.3998 24.6H9.5998C9.26846 24.6 8.9998 24.3313 8.9998 24V13.2C8.9998 12.8687 9.26846 12.6 9.5998 12.6H32.3998C32.7311 12.6 32.9998 12.8687 32.9998 13.2V24Z" fill="#1C4E63"/>
<path d="M14.9998 14.4H11.3998C11.0685 14.4 10.7998 14.6687 10.7998 15V22.2C10.7998 22.5314 11.0685 22.8 11.3998 22.8C11.7312 22.8 11.9998 22.5314 11.9998 22.2V19.2H14.9998C15.9938 19.2 16.7998 18.3941 16.7998 17.4V16.2C16.7998 15.206 15.9938 14.4 14.9998 14.4ZM15.5998 17.4C15.5998 17.7314 15.3312 18 14.9998 18H11.9998V15.6H14.9998C15.3312 15.6 15.5998 15.8687 15.5998 16.2V17.4Z" fill="#1C4E63"/>
<path d="M21 14.4H18.6C18.2687 14.4 18 14.6687 18 15V22.2C18 22.5314 18.2687 22.8 18.6 22.8H21C22.6562 22.798 23.9979 21.4562 24 19.8V17.4C23.9979 15.7439 22.6562 14.4021 21 14.4ZM22.8 19.8C22.8 20.7941 21.994 21.6 21 21.6H19.2V15.6H21C21.994 15.6 22.8 16.406 22.8 17.4V19.8Z" fill="#1C4E63"/>
<path d="M30.5997 14.4H25.7997C25.4684 14.4 25.1997 14.6687 25.1997 15V22.2C25.1997 22.5314 25.4684 22.8 25.7997 22.8C26.1311 22.8 26.3997 22.5314 26.3997 22.2V19.2H29.3997C29.7311 19.2 29.9997 18.9314 29.9997 18.6C29.9997 18.2687 29.7311 18 29.3997 18H26.3997V15.6H30.5997C30.9311 15.6 31.1997 15.3314 31.1997 15C31.1997 14.6687 30.9311 14.4 30.5997 14.4Z" fill="#1C4E63"/>
</svg>
