<svg width="36" height="36" viewBox="0 0 36 36" fill="none" xmlns="http://www.w3.org/2000/svg">
<path d="M8.3999 24V13.2C8.40195 12.5382 8.93809 12.002 9.5999 12H29.9999V1.8C29.9979 1.13818 29.4617 0.602049 28.7999 0.599998H10.1999V6.6C10.1999 7.26269 9.6626 7.8 8.9999 7.8H2.3999V34.2C2.40195 34.8618 2.93809 35.3979 3.5999 35.4H28.7999C29.4617 35.3979 29.9979 34.8618 29.9999 34.2V25.2H9.5999C8.93809 25.1979 8.40195 24.6618 8.3999 24Z" fill="#C0D8E2"/>
<path d="M29.3993 18H26.9993C26.6679 18 26.3993 17.7313 26.3993 17.4V16.2C26.3993 15.8687 26.6679 15.6 26.9993 15.6H29.4297C29.5832 15.5997 29.7303 15.6615 29.8373 15.7717C29.948 15.8859 30.0066 16.0409 29.9993 16.2C29.9993 16.5287 30.2635 16.7962 30.5919 16.8H30.5993C30.9256 16.8 31.1919 16.5396 31.1993 16.2132C31.2107 15.7365 31.0293 15.2754 30.6965 14.9341C30.3634 14.5928 29.9067 14.4003 29.4297 14.4H26.9993C26.0052 14.4 25.1993 15.206 25.1993 16.2V17.4C25.1993 18.394 26.0052 19.2 26.9993 19.2H29.3993C29.7306 19.2 29.9993 19.4687 29.9993 19.8V21C29.9993 21.3313 29.7306 21.6 29.3993 21.6H26.9993C26.6647 21.5968 26.3963 21.3231 26.3993 20.9886C26.3928 20.6631 26.1248 20.4038 25.7993 20.4079H25.789C25.4574 20.4173 25.1946 20.6915 25.1993 21.0234C25.2157 22.0069 26.0158 22.7965 26.9993 22.8H29.3993C30.3933 22.8 31.1993 21.994 31.1993 21V19.8C31.1993 18.806 30.3933 18 29.3993 18Z" fill="#1C4E63"/>
<path d="M23.4 21.6H19.2V15C19.2 14.6687 18.9313 14.4 18.6 14.4C18.2687 14.4 18 14.6687 18 15V22.2C18 22.5313 18.2687 22.8 18.6 22.8H23.4C23.7313 22.8 24 22.5313 24 22.2C24 21.8687 23.7313 21.6 23.4 21.6Z" fill="#1C4E63"/>
<path d="M32.3998 11.4H30.5998V1.8C30.5998 0.805957 29.7938 0 28.7998 0H10.1998C10.1872 0 10.1764 0.00585938 10.1638 0.00673829C10.1154 0.0099609 10.0674 0.019043 10.0211 0.0336914C10.0018 0.0386719 9.98301 0.0445313 9.96455 0.0515625C9.90156 0.0773438 9.84356 0.113965 9.79287 0.159668L1.99287 7.35967C1.93926 7.41094 1.8959 7.47188 1.86514 7.53955C1.85635 7.55918 1.84873 7.5791 1.84229 7.59961C1.82266 7.65352 1.81094 7.71035 1.80771 7.76748C1.80771 7.78008 1.7998 7.7915 1.7998 7.8041V34.2C1.7998 35.194 2.60576 36 3.5998 36H28.7998C29.7938 36 30.5998 35.194 30.5998 34.2V25.8H32.3998C33.3938 25.8 34.1998 24.994 34.1998 24V13.2C34.1998 12.206 33.3938 11.4 32.3998 11.4ZM9.5998 1.97051V6.6C9.5998 6.93135 9.33115 7.2 8.9998 7.2H3.93467L9.5998 1.97051ZM29.3998 34.2C29.3998 34.5313 29.1312 34.8 28.7998 34.8H3.5998C3.26846 34.8 2.9998 34.5313 2.9998 34.2V8.4H8.9998C9.99385 8.4 10.7998 7.59404 10.7998 6.6V1.2H28.7998C29.1312 1.2 29.3998 1.46865 29.3998 1.8V11.4H9.5998C8.60576 11.4 7.7998 12.206 7.7998 13.2V24C7.7998 24.994 8.60576 25.8 9.5998 25.8H29.3998V34.2ZM32.9998 24C32.9998 24.3313 32.7312 24.6 32.3998 24.6H9.5998C9.26846 24.6 8.9998 24.3313 8.9998 24V13.2C8.9998 12.8687 9.26846 12.6 9.5998 12.6H32.3998C32.7312 12.6 32.9998 12.8687 32.9998 13.2V24Z" fill="#1C4E63"/>
<path d="M16.5321 14.5C16.2565 14.316 15.8838 14.3904 15.6998 14.6661L13.799 17.5193L11.8983 14.6681C11.7143 14.3922 11.3416 14.3178 11.0659 14.5017C10.7903 14.6857 10.7158 15.0584 10.8998 15.3341L13.0789 18.5992L10.901 21.8661C10.717 22.1418 10.7914 22.5144 11.0671 22.6984C11.3431 22.8824 11.7154 22.808 11.8994 22.5323L13.799 19.6791L15.6998 22.5303C15.8838 22.8062 16.2565 22.8807 16.5321 22.6967C16.8078 22.5127 16.8822 22.14 16.6983 21.8643L14.5192 18.5992L16.6971 15.3323C16.8814 15.0569 16.8072 14.6843 16.5321 14.5Z" fill="#1C4E63"/>
</svg>
