<svg width="36" height="36" viewBox="0 0 36 36" fill="none" xmlns="http://www.w3.org/2000/svg">
<path d="M5.40166 35.4H30.6017C31.2644 35.4 31.8017 34.8627 31.8017 34.2V1.80001C31.8017 1.13731 31.2644 0.600006 30.6017 0.600006H19.8017V22.2L21.5416 26.5541C21.6896 26.9235 21.6447 27.3422 21.4218 27.6721C21.1988 28.0017 20.8273 28.1994 20.4292 28.2H15.5741C15.1763 28.1994 14.8045 28.0017 14.5815 27.6721C14.3589 27.3422 14.3138 26.9235 14.4617 26.5541L16.2017 22.2V0.600006H12.0017V6.60001C12.0017 7.2627 11.4644 7.80001 10.8017 7.80001H4.20166V34.2C4.20166 34.8627 4.73896 35.4 5.40166 35.4Z" fill="#C0D8E2"/>
<path d="M30.6019 0H12.0019C11.9893 0 11.9778 0.00585938 11.9646 0.00732422C11.9169 0.0102539 11.8697 0.019043 11.8243 0.0336914C11.8038 0.0383789 11.7839 0.0445313 11.7643 0.0521484C11.7016 0.0776367 11.6438 0.113965 11.5932 0.159082L3.79316 7.35908C3.73984 7.41065 3.69619 7.47158 3.66484 7.53897C3.65664 7.55742 3.64902 7.57617 3.64258 7.59551C3.62295 7.64941 3.61123 7.70596 3.60801 7.76338C3.60801 7.77598 3.6001 7.7874 3.6001 7.8V34.2C3.6001 35.194 4.40605 36 5.4001 36H30.6019C31.5959 36 32.4019 35.194 32.4019 34.2V1.8C32.4019 0.805957 31.5959 0 30.6019 0ZM16.6082 22.8H19.3958L20.9863 26.7773C21.0602 26.9622 21.0376 27.1717 20.926 27.3363C20.8144 27.501 20.6286 27.6 20.4294 27.6H15.5743C15.3754 27.6 15.1894 27.501 15.0777 27.3363C14.9664 27.1717 14.9436 26.9622 15.0174 26.7773L16.6082 22.8ZM19.2019 1.2V21.6H16.8019V1.2H19.2019ZM11.4019 1.97051V6.6C11.4019 6.93135 11.1332 7.2 10.8019 7.2H5.73672L9.82041 3.43008L11.4019 1.97051ZM31.2019 34.2C31.2019 34.5313 30.9332 34.8 30.6019 34.8H5.40186C5.07051 34.8 4.80186 34.5313 4.80186 34.2V8.4H10.8019C11.7959 8.4 12.6019 7.59404 12.6019 6.6V1.2H15.6019V22.0843L13.9026 26.3317C13.6809 26.8863 13.7485 27.5147 14.0837 28.0093C14.4186 28.5038 14.977 28.8 15.5743 28.8H20.4294C21.0268 28.8 21.5852 28.5038 21.9203 28.0093C22.2552 27.5147 22.3229 26.8863 22.1011 26.3317L20.4019 22.0843V1.2H30.6019C30.9332 1.2 31.2019 1.46865 31.2019 1.8V34.2Z" fill="#1C4E63"/>
<path d="M17.4019 2.39999H18.6019V3.59999H17.4019V2.39999Z" fill="#1C4E63"/>
<path d="M17.4019 4.8H18.6019V6H17.4019V4.8Z" fill="#1C4E63"/>
<path d="M17.4019 7.2H18.6019V8.4H17.4019V7.2Z" fill="#1C4E63"/>
<path d="M17.4019 9.60001H18.6019V10.8H17.4019V9.60001Z" fill="#1C4E63"/>
<path d="M17.4019 12H18.6019V13.2H17.4019V12Z" fill="#1C4E63"/>
<path d="M17.4019 14.4H18.6019V15.6H17.4019V14.4Z" fill="#1C4E63"/>
<path d="M17.4019 16.8H18.6019V18H17.4019V16.8Z" fill="#1C4E63"/>
<path d="M17.4019 19.2H18.6019V20.4H17.4019V19.2Z" fill="#1C4E63"/>
<path d="M16.8017 26.4H19.2017C19.533 26.4 19.8017 26.1313 19.8017 25.8C19.8017 25.4686 19.533 25.2 19.2017 25.2H16.8017C16.4703 25.2 16.2017 25.4686 16.2017 25.8C16.2017 26.1313 16.4703 26.4 16.8017 26.4Z" fill="#1C4E63"/>
</svg>
